# Blender 4.3.0
# www.blender.org
mtllib untitled.mtl
o Cylinder.001
v 1.278928 -12.355255 -0.805408
v 0.832868 -12.355255 -1.368271
v 1.219167 -12.355255 -1.086839
v 1.055898 -12.355255 -1.292862
v 1.278928 -12.509220 -0.790243
v 0.832868 -12.619029 -1.342292
v 1.219167 -12.564124 -1.066268
v 1.055898 -12.604317 -1.268332
v 1.278928 -12.657268 -0.745334
v 0.832868 -12.872666 -1.265352
v 1.219167 -12.764967 -1.005343
v 1.055898 -12.843808 -1.195683
v 1.278928 -12.793710 -0.672404
v 0.832868 -13.106421 -1.140408
v 1.219167 -12.950065 -0.906406
v 1.055898 -13.064525 -1.077707
v 1.278928 -12.913301 -0.574257
v 0.832868 -13.311306 -0.972262
v 1.219167 -13.112305 -0.773260
v 1.055898 -13.257984 -0.918939
v 1.278928 -13.011448 -0.454665
v 0.832868 -13.479452 -0.767375
v 1.219167 -13.245451 -0.611020
v 1.055898 -13.416752 -0.725480
v 1.278928 -13.084378 -0.318223
v 0.832868 -13.604397 -0.533622
v 1.219167 -13.344387 -0.425922
v 1.055898 -13.534727 -0.504764
v 1.278928 -13.129288 -0.170175
v 0.832868 -13.681336 -0.279984
v 1.219167 -13.405312 -0.225080
v 1.055898 -13.607376 -0.265273
v 1.278928 -13.144452 -0.016210
v 0.832868 -13.707315 -0.016210
v 1.219167 -13.425884 -0.016210
v 1.055898 -13.631907 -0.016210
v 1.278928 -13.129288 0.137755
v 0.832868 -13.681336 0.247564
v 1.219167 -13.405312 0.192659
v 1.055898 -13.607376 0.232852
v 1.278928 -13.084378 0.285802
v 0.832868 -13.604397 0.501201
v 1.219167 -13.344387 0.393502
v 1.055898 -13.534727 0.472343
v 1.278928 -13.011448 0.422244
v 0.832868 -13.479452 0.734955
v 1.219167 -13.245451 0.578600
v 1.055898 -13.416752 0.693060
v 1.278928 -12.913301 0.541837
v 0.832868 -13.311306 0.939841
v 1.219167 -13.112305 0.740839
v 1.055898 -13.257984 0.886519
v 1.278928 -12.793710 0.639983
v 0.832868 -13.106421 1.107988
v 1.219167 -12.950065 0.873985
v 1.055898 -13.064525 1.045287
v 1.278928 -12.657268 0.712913
v 0.832868 -12.872666 1.232931
v 1.219167 -12.764967 0.972922
v 1.055898 -12.843808 1.163262
v 1.278928 -12.509220 0.757823
v 0.832868 -12.619029 1.309871
v 1.219167 -12.564124 1.033847
v 1.055898 -12.604317 1.235911
v 1.278928 -12.355255 0.772987
v 0.832868 -12.355255 1.335851
v 1.219167 -12.355255 1.054419
v 1.055898 -12.355255 1.260442
v 1.278928 -12.201290 0.757823
v 0.832868 -12.091480 1.309871
v 1.219167 -12.146385 1.033847
v 1.055898 -12.106193 1.235911
v 1.278928 -12.053242 0.712913
v 0.832868 -11.837843 1.232931
v 1.219167 -11.945543 0.972922
v 1.055898 -11.866701 1.163262
v 1.278928 -11.916800 0.639983
v 0.832868 -11.604090 1.107988
v 1.219167 -11.760445 0.873985
v 1.055898 -11.645985 1.045287
v 1.278928 -11.797208 0.541837
v 0.832868 -11.399203 0.939841
v 1.219167 -11.598206 0.740839
v 1.055898 -11.452526 0.886519
v 1.278928 -11.699061 0.422244
v 0.832868 -11.231057 0.734955
v 1.219167 -11.465059 0.578600
v 1.055898 -11.293757 0.693060
v 1.278928 -11.626131 0.285802
v 0.832868 -11.106113 0.501201
v 1.219167 -11.366122 0.393502
v 1.055898 -11.175782 0.472343
v 1.278928 -11.581222 0.137755
v 0.832868 -11.029173 0.247564
v 1.219167 -11.305198 0.192659
v 1.055898 -11.103134 0.232852
v 1.278928 -11.566057 -0.016210
v 0.832868 -11.003193 -0.016210
v 1.219167 -11.284626 -0.016210
v 1.055898 -11.078603 -0.016210
v 1.278928 -11.581222 -0.170175
v 0.832868 -11.029173 -0.279984
v 1.219167 -11.305198 -0.225080
v 1.055898 -11.103133 -0.265273
v 1.278928 -11.626131 -0.318223
v 0.832868 -11.106113 -0.533622
v 1.219167 -11.366122 -0.425922
v 1.055898 -11.175782 -0.504764
v 1.278928 -11.699061 -0.454665
v 0.832868 -11.231057 -0.767375
v 1.219167 -11.465059 -0.611020
v 1.055898 -11.293757 -0.725480
v 1.278928 -11.797208 -0.574257
v 0.832868 -11.399203 -0.972262
v 1.219167 -11.598206 -0.773260
v 1.055898 -11.452526 -0.918939
v 1.278928 -11.916800 -0.672404
v 0.832868 -11.604090 -1.140408
v 1.219167 -11.760445 -0.906406
v 1.055898 -11.645985 -1.077707
v 1.278928 -12.053242 -0.745334
v 0.832868 -11.837843 -1.265352
v 1.219167 -11.945543 -1.005343
v 1.055898 -11.866701 -1.195683
v 1.278928 -12.201290 -0.790243
v 0.832868 -12.091480 -1.342292
v 1.219167 -12.146385 -1.066268
v 1.055898 -12.106193 -1.268331
v -0.874411 -12.355255 -0.801905
v -0.425575 -12.355255 -1.368271
v -0.814278 -12.355255 -1.085088
v -0.649993 -12.355255 -1.292393
v -0.425575 -12.619029 -1.342292
v -0.874411 -12.508535 -0.786808
v -0.649993 -12.604225 -1.267871
v -0.814278 -12.563783 -1.064550
v -0.425575 -12.872666 -1.265352
v -0.874411 -12.655928 -0.742097
v -0.649993 -12.843629 -1.195249
v -0.814278 -12.764297 -1.003725
v -0.425575 -13.106421 -1.140408
v -0.874411 -12.791763 -0.669491
v -0.649993 -13.064264 -1.077317
v -0.814278 -12.949092 -0.904950
v -0.425575 -13.311306 -0.972262
v -0.874411 -12.910825 -0.571780
v -0.649993 -13.257652 -0.918608
v -0.814278 -13.111066 -0.772021
v -0.425575 -13.479452 -0.767375
v -0.874411 -13.008535 -0.452719
v -0.649993 -13.416362 -0.725219
v -0.814278 -13.243994 -0.610047
v -0.425575 -13.604397 -0.533622
v -0.874411 -13.081142 -0.316883
v -0.649993 -13.534294 -0.504584
v -0.814278 -13.342770 -0.425252
v -0.425575 -13.681336 -0.279984
v -0.874411 -13.125853 -0.169491
v -0.649993 -13.606916 -0.265181
v -0.814278 -13.403595 -0.224738
v -0.425575 -13.707315 -0.016210
v -0.874411 -13.140949 -0.016210
v -0.649993 -13.631437 -0.016210
v -0.814278 -13.424133 -0.016210
v -0.425575 -13.681336 0.247564
v -0.874411 -13.125853 0.137071
v -0.649993 -13.606916 0.232761
v -0.814278 -13.403595 0.192317
v -0.425575 -13.604397 0.501201
v -0.874411 -13.081142 0.284462
v -0.649993 -13.534294 0.472164
v -0.814278 -13.342770 0.392832
v -0.425575 -13.479452 0.734955
v -0.874411 -13.008535 0.420298
v -0.649993 -13.416362 0.692799
v -0.814278 -13.243994 0.577627
v -0.425575 -13.311306 0.939841
v -0.874411 -12.910825 0.539360
v -0.649993 -13.257652 0.886187
v -0.814278 -13.111066 0.739601
v -0.425575 -13.106421 1.107988
v -0.874411 -12.791763 0.637071
v -0.649993 -13.064264 1.044897
v -0.814278 -12.949092 0.872529
v -0.425575 -12.872666 1.232931
v -0.874411 -12.655928 0.709677
v -0.649993 -12.843629 1.162829
v -0.814278 -12.764297 0.971304
v -0.425575 -12.619029 1.309871
v -0.874411 -12.508535 0.754387
v -0.649993 -12.604225 1.235451
v -0.814278 -12.563783 1.032129
v -0.425575 -12.355255 1.335851
v -0.874411 -12.355255 0.769484
v -0.649993 -12.355255 1.259972
v -0.814278 -12.355255 1.052668
v -0.425575 -12.091480 1.309871
v -0.874411 -12.201974 0.754387
v -0.649993 -12.106284 1.235451
v -0.814278 -12.146727 1.032129
v -0.425575 -11.837843 1.232931
v -0.874411 -12.054583 0.709677
v -0.649993 -11.866880 1.162829
v -0.814278 -11.946213 0.971304
v -0.425575 -11.604090 1.107988
v -0.874411 -11.918746 0.637071
v -0.649993 -11.646246 1.044897
v -0.814278 -11.761417 0.872529
v -0.425575 -11.399203 0.939841
v -0.874411 -11.799685 0.539360
v -0.649993 -11.452858 0.886187
v -0.814278 -11.599443 0.739601
v -0.425575 -11.231057 0.734955
v -0.874411 -11.701974 0.420298
v -0.649993 -11.294147 0.692799
v -0.814278 -11.466516 0.577627
v -0.425575 -11.106113 0.501201
v -0.874411 -11.629368 0.284462
v -0.649993 -11.176216 0.472164
v -0.814278 -11.367741 0.392832
v -0.425575 -11.029173 0.247564
v -0.874411 -11.584657 0.137071
v -0.649993 -11.103594 0.232761
v -0.814278 -11.306915 0.192317
v -0.425575 -11.003194 -0.016210
v -0.874411 -11.569560 -0.016210
v -0.649993 -11.079072 -0.016210
v -0.814278 -11.286377 -0.016210
v -0.425575 -11.029173 -0.279984
v -0.874411 -11.584657 -0.169491
v -0.649993 -11.103594 -0.265181
v -0.814278 -11.306915 -0.224738
v -0.425575 -11.106113 -0.533622
v -0.874411 -11.629368 -0.316883
v -0.649993 -11.176216 -0.504584
v -0.814278 -11.367741 -0.425252
v -0.425575 -11.231057 -0.767375
v -0.874411 -11.701974 -0.452719
v -0.649993 -11.294147 -0.725219
v -0.814278 -11.466516 -0.610047
v -0.425575 -11.399203 -0.972262
v -0.874411 -11.799685 -0.571780
v -0.649993 -11.452858 -0.918608
v -0.814278 -11.599443 -0.772021
v -0.425575 -11.604090 -1.140408
v -0.874411 -11.918746 -0.669491
v -0.649993 -11.646246 -1.077317
v -0.814278 -11.761417 -0.904950
v -0.425575 -11.837843 -1.265352
v -0.874411 -12.054583 -0.742097
v -0.649993 -11.866880 -1.195249
v -0.814278 -11.946213 -1.003725
v -0.425575 -12.091480 -1.342292
v -0.874411 -12.201974 -0.786808
v -0.649993 -12.106284 -1.267871
v -0.814278 -12.146727 -1.064550
v -0.874411 -12.355255 -0.801905
v -0.874411 -12.508535 -0.786808
v -0.874411 -12.655928 -0.742097
v -0.874411 -12.791763 -0.669491
v -0.874411 -12.910825 -0.571780
v -0.874411 -13.008535 -0.452719
v -0.874411 -13.081142 -0.316883
v -0.874411 -13.125853 -0.169491
v -0.874411 -13.140949 -0.016210
v -0.874411 -13.125853 0.137071
v -0.874411 -13.081142 0.284462
v -0.874411 -13.008535 0.420298
v -0.874411 -12.910825 0.539360
v -0.874411 -12.791763 0.637071
v -0.874411 -12.655928 0.709677
v -0.874411 -12.508535 0.754387
v -0.874411 -12.355255 0.769484
v -0.874411 -12.201974 0.754387
v -0.874411 -12.054583 0.709677
v -0.874411 -11.918746 0.637071
v -0.874411 -11.799685 0.539360
v -0.874411 -11.701974 0.420298
v -0.874411 -11.629368 0.284462
v -0.874411 -11.584657 0.137071
v -0.874411 -11.569560 -0.016210
v -0.874411 -11.584657 -0.169491
v -0.874411 -11.629368 -0.316883
v -0.874411 -11.701974 -0.452719
v -0.874411 -11.799685 -0.571780
v -0.874411 -11.918746 -0.669491
v -0.874411 -12.054583 -0.742097
v -0.874411 -12.201974 -0.786808
v -0.874411 -12.355255 -0.801905
v -0.874411 -12.508535 -0.786808
v -0.874411 -12.655928 -0.742097
v -0.874411 -12.791763 -0.669491
v -0.874411 -12.910825 -0.571780
v -0.874411 -13.008535 -0.452719
v -0.874411 -13.081142 -0.316883
v -0.874411 -13.125853 -0.169491
v -0.874411 -13.140949 -0.016210
v -0.874411 -13.125853 0.137071
v -0.874411 -13.081142 0.284462
v -0.874411 -13.008535 0.420298
v -0.874411 -12.910825 0.539360
v -0.874411 -12.791763 0.637071
v -0.874411 -12.655928 0.709677
v -0.874411 -12.508535 0.754387
v -0.874411 -12.355255 0.769484
v -0.874411 -12.201974 0.754387
v -0.874411 -12.054583 0.709677
v -0.874411 -11.918746 0.637071
v -0.874411 -11.799685 0.539360
v -0.874411 -11.701974 0.420298
v -0.874411 -11.629368 0.284462
v -0.874411 -11.584657 0.137071
v -0.874411 -11.569560 -0.016210
v -0.874411 -11.584657 -0.169491
v -0.874411 -11.629368 -0.316883
v -0.874411 -11.701974 -0.452719
v -0.874411 -11.799685 -0.571780
v -0.874411 -11.918746 -0.669491
v -0.874411 -12.054583 -0.742097
v -0.874411 -12.201974 -0.786808
v -0.874411 -12.355255 -0.801905
v -0.874411 -12.508535 -0.786808
v -0.874411 -12.655928 -0.742097
v -0.874411 -12.791763 -0.669491
v -0.874411 -12.910825 -0.571780
v -0.874411 -13.008535 -0.452719
v -0.874411 -13.081142 -0.316883
v -0.874411 -13.125853 -0.169491
v -0.874411 -13.140949 -0.016210
v -0.874411 -13.125853 0.137071
v -0.874411 -13.081142 0.284462
v -0.874411 -13.008535 0.420298
v -0.874411 -12.910825 0.539360
v -0.874411 -12.791763 0.637071
v -0.874411 -12.655928 0.709677
v -0.874411 -12.508535 0.754387
v -0.874411 -12.355255 0.769484
v -0.874411 -12.201974 0.754387
v -0.874411 -12.054583 0.709677
v -0.874411 -11.918746 0.637071
v -0.874411 -11.799685 0.539360
v -0.874411 -11.701974 0.420298
v -0.874411 -11.629368 0.284462
v -0.874411 -11.584657 0.137071
v -0.874411 -11.569560 -0.016210
v -0.874411 -11.584657 -0.169491
v -0.874411 -11.629368 -0.316883
v -0.874411 -11.701974 -0.452719
v -0.874411 -11.799685 -0.571780
v -0.874411 -11.918746 -0.669491
v -0.874411 -12.054583 -0.742097
v -0.874411 -12.201974 -0.786808
v -0.874411 -12.355255 -0.801905
v -0.874411 -12.508535 -0.786808
v -0.874411 -12.655928 -0.742097
v -0.874411 -12.791763 -0.669491
v -0.874411 -12.910825 -0.571780
v -0.874411 -13.008535 -0.452719
v -0.874411 -13.081142 -0.316883
v -0.874411 -13.125853 -0.169491
v -0.874411 -13.140949 -0.016210
v -0.874411 -13.125853 0.137071
v -0.874411 -13.081142 0.284462
v -0.874411 -13.008535 0.420298
v -0.874411 -12.910825 0.539360
v -0.874411 -12.791763 0.637071
v -0.874411 -12.655928 0.709677
v -0.874411 -12.508535 0.754387
v -0.874411 -12.355255 0.769484
v -0.874411 -12.201974 0.754387
v -0.874411 -12.054583 0.709677
v -0.874411 -11.918746 0.637071
v -0.874411 -11.799685 0.539360
v -0.874411 -11.701974 0.420298
v -0.874411 -11.629368 0.284462
v -0.874411 -11.584657 0.137071
v -0.874411 -11.569560 -0.016210
v -0.874411 -11.584657 -0.169491
v -0.874411 -11.629368 -0.316883
v -0.874411 -11.701974 -0.452719
v -0.874411 -11.799685 -0.571780
v -0.874411 -11.918746 -0.669491
v -0.874411 -12.054583 -0.742097
v -0.874411 -12.201974 -0.786808
v -0.828866 -12.508535 -0.786808
v -0.828866 -12.355255 -0.801905
v -0.828866 -12.655928 -0.742097
v -0.828866 -12.791763 -0.669491
v -0.828866 -12.910825 -0.571780
v -0.828866 -13.008535 -0.452719
v -0.828866 -13.081142 -0.316883
v -0.828866 -13.125853 -0.169491
v -0.828866 -13.140949 -0.016210
v -0.828866 -13.125853 0.137071
v -0.828866 -13.081142 0.284462
v -0.828866 -13.008535 0.420298
v -0.828866 -12.910825 0.539360
v -0.828866 -12.791763 0.637071
v -0.828866 -12.655928 0.709677
v -0.828866 -12.508535 0.754387
v -0.828866 -12.355255 0.769484
v -0.828866 -12.201974 0.754387
v -0.828866 -12.054583 0.709677
v -0.828866 -11.918746 0.637071
v -0.828866 -11.799685 0.539360
v -0.828866 -11.701974 0.420298
v -0.828866 -11.629368 0.284462
v -0.828866 -11.584657 0.137071
v -0.828866 -11.569560 -0.016210
v -0.828866 -11.584657 -0.169491
v -0.828866 -11.629368 -0.316883
v -0.828866 -11.701974 -0.452719
v -0.828866 -11.799685 -0.571780
v -0.828866 -11.918746 -0.669491
v -0.828866 -12.054583 -0.742097
v -0.828866 -12.201974 -0.786808
v -0.754296 -12.508535 -0.786808
v -0.754296 -12.355255 -0.801905
v -0.754296 -12.655928 -0.742097
v -0.754296 -12.791763 -0.669491
v -0.754296 -12.910825 -0.571780
v -0.754296 -13.008535 -0.452719
v -0.754296 -13.081142 -0.316883
v -0.754296 -13.125853 -0.169491
v -0.754296 -13.140949 -0.016210
v -0.754296 -13.125853 0.137071
v -0.754296 -13.081142 0.284462
v -0.754296 -13.008535 0.420298
v -0.754296 -12.910825 0.539360
v -0.754296 -12.791763 0.637071
v -0.754296 -12.655928 0.709677
v -0.754296 -12.508535 0.754387
v -0.754296 -12.355255 0.769484
v -0.754296 -12.201974 0.754387
v -0.754296 -12.054583 0.709677
v -0.754296 -11.918746 0.637071
v -0.754296 -11.799685 0.539360
v -0.754296 -11.701974 0.420298
v -0.754296 -11.629368 0.284462
v -0.754296 -11.584657 0.137071
v -0.754296 -11.569560 -0.016210
v -0.754296 -11.584657 -0.169491
v -0.754296 -11.629368 -0.316883
v -0.754296 -11.701974 -0.452719
v -0.754296 -11.799685 -0.571780
v -0.754296 -11.918746 -0.669491
v -0.754296 -12.054583 -0.742097
v -0.754296 -12.201974 -0.786808
v 1.122328 -12.355255 -0.805408
v 1.122328 -12.509220 -0.790243
v 1.122328 -12.657268 -0.745334
v 1.122328 -12.793710 -0.672404
v 1.122328 -12.913301 -0.574257
v 1.122328 -13.011448 -0.454665
v 1.122328 -13.084378 -0.318223
v 1.122328 -13.129288 -0.170175
v 1.122328 -13.144452 -0.016210
v 1.122328 -13.129288 0.137755
v 1.122328 -13.084378 0.285802
v 1.122328 -13.011448 0.422244
v 1.122328 -12.913301 0.541837
v 1.122328 -12.793710 0.639983
v 1.122328 -12.657268 0.712913
v 1.122328 -12.509220 0.757823
v 1.122328 -12.355255 0.772987
v 1.122328 -12.201290 0.757823
v 1.122328 -12.053242 0.712913
v 1.122328 -11.916800 0.639983
v 1.122328 -11.797208 0.541837
v 1.122328 -11.699061 0.422244
v 1.122328 -11.626131 0.285802
v 1.122328 -11.581222 0.137755
v 1.122328 -11.566057 -0.016210
v 1.122328 -11.581222 -0.170175
v 1.122328 -11.626131 -0.318223
v 1.122328 -11.699061 -0.454665
v 1.122328 -11.797208 -0.574257
v 1.122328 -11.916800 -0.672404
v 1.122328 -12.053242 -0.745334
v 1.122328 -12.201290 -0.790243
vn -0.0000 -0.0980 -0.9952
vn -0.0000 -0.6344 -0.7730
vn -0.0000 -0.7730 -0.6344
vn -0.0000 -0.8819 -0.4714
vn -0.0000 -0.9569 -0.2903
vn -0.0000 -0.9952 -0.0980
vn -0.0000 -0.9952 0.0980
vn -0.0000 -0.9569 0.2903
vn -0.0000 -0.8819 0.4714
vn -0.0000 -0.7730 0.6344
vn -0.0000 -0.6344 0.7730
vn -0.0000 -0.4714 0.8819
vn -0.0000 -0.2903 0.9569
vn -0.0000 -0.0980 0.9952
vn -0.0000 0.0980 0.9952
vn -0.0000 0.2903 0.9569
vn -0.0000 0.4714 0.8819
vn -0.0000 0.6344 0.7730
vn -0.0000 0.7730 0.6344
vn -0.0000 0.8819 0.4714
vn -0.0000 0.9569 0.2903
vn -0.0000 0.9952 0.0980
vn -0.0000 0.9952 -0.0980
vn -0.0000 0.9569 -0.2903
vn -0.0000 0.8819 -0.4714
vn -0.0000 0.7730 -0.6344
vn -0.0000 0.6344 -0.7730
vn -0.0000 0.4714 -0.8819
vn -0.0000 0.2903 -0.9569
vn -0.0000 -0.2903 -0.9569
vn -0.0000 -0.4714 -0.8819
vn -0.0000 0.0980 -0.9952
vn 0.3189 -0.0929 -0.9432
vn 0.7823 -0.0611 -0.6199
vn 0.9780 -0.0205 -0.2077
vn 0.3189 -0.2751 -0.9070
vn 0.7823 -0.1808 -0.5961
vn 0.9780 -0.0606 -0.1997
vn 0.3189 -0.4468 -0.8359
vn 0.7823 -0.2937 -0.5494
vn 0.9780 -0.0984 -0.1840
vn 0.3189 -0.6013 -0.7326
vn 0.7823 -0.3952 -0.4815
vn 0.9780 -0.1324 -0.1613
vn 0.3189 -0.7326 -0.6013
vn 0.7823 -0.4815 -0.3952
vn 0.9780 -0.1613 -0.1324
vn 0.3189 -0.8359 -0.4468
vn 0.7823 -0.5494 -0.2937
vn 0.9780 -0.1840 -0.0984
vn 0.3189 -0.9070 -0.2751
vn 0.7823 -0.5961 -0.1808
vn 0.9780 -0.1997 -0.0606
vn 0.3189 -0.9432 -0.0929
vn 0.7823 -0.6199 -0.0611
vn 0.9780 -0.2077 -0.0205
vn 0.3189 -0.9432 0.0929
vn 0.7823 -0.6199 0.0611
vn 0.9780 -0.2077 0.0205
vn 0.3189 -0.9070 0.2751
vn 0.7823 -0.5961 0.1808
vn 0.9780 -0.1997 0.0606
vn 0.3189 -0.8359 0.4468
vn 0.7823 -0.5494 0.2937
vn 0.9780 -0.1840 0.0984
vn 0.3189 -0.7326 0.6013
vn 0.7823 -0.4815 0.3952
vn 0.9780 -0.1613 0.1324
vn 0.3189 -0.6013 0.7326
vn 0.7823 -0.3952 0.4815
vn 0.9780 -0.1324 0.1613
vn 0.3189 -0.4468 0.8359
vn 0.7823 -0.2936 0.5494
vn 0.9780 -0.0984 0.1840
vn 0.3189 -0.2751 0.9070
vn 0.7823 -0.1808 0.5961
vn 0.9780 -0.0606 0.1997
vn 0.3189 -0.0929 0.9432
vn 0.7823 -0.0611 0.6199
vn 0.9780 -0.0205 0.2077
vn 0.3189 0.0929 0.9432
vn 0.7823 0.0611 0.6199
vn 0.9780 0.0205 0.2077
vn 0.3189 0.2751 0.9070
vn 0.7823 0.1808 0.5961
vn 0.9780 0.0606 0.1997
vn 0.3189 0.4468 0.8359
vn 0.7823 0.2936 0.5494
vn 0.9780 0.0984 0.1840
vn 0.3189 0.6013 0.7326
vn 0.7823 0.3952 0.4815
vn 0.9780 0.1324 0.1613
vn 0.3189 0.7326 0.6013
vn 0.7823 0.4815 0.3952
vn 0.9780 0.1613 0.1324
vn 0.3189 0.8359 0.4468
vn 0.7823 0.5494 0.2936
vn 0.9780 0.1840 0.0984
vn 0.3189 0.9070 0.2751
vn 0.7823 0.5961 0.1808
vn 0.9780 0.1997 0.0606
vn 0.3189 0.9432 0.0929
vn 0.7823 0.6199 0.0611
vn 0.9780 0.2077 0.0205
vn 0.3189 0.9432 -0.0929
vn 0.7823 0.6199 -0.0611
vn 0.9780 0.2077 -0.0205
vn 0.3189 0.9070 -0.2751
vn 0.7823 0.5961 -0.1808
vn 0.9780 0.1997 -0.0606
vn 0.3189 0.8359 -0.4468
vn 0.7823 0.5494 -0.2936
vn 0.9780 0.1840 -0.0984
vn 0.3189 0.7326 -0.6013
vn 0.7823 0.4815 -0.3952
vn 0.9780 0.1613 -0.1324
vn 0.3189 0.6013 -0.7326
vn 0.7823 0.3952 -0.4815
vn 0.9780 0.1324 -0.1613
vn 0.3189 0.4468 -0.8359
vn 0.7823 0.2937 -0.5494
vn 0.9780 0.0984 -0.1840
vn 0.3189 0.2751 -0.9070
vn 0.7823 0.1808 -0.5961
vn 0.9780 0.0606 -0.1997
vn 0.3189 0.0929 -0.9432
vn 0.7823 0.0611 -0.6199
vn 0.9780 0.0205 -0.2077
vn -0.3189 -0.0929 -0.9432
vn -0.7823 -0.0611 -0.6199
vn -0.9780 -0.0205 -0.2077
vn -0.3189 -0.2751 -0.9070
vn -0.7823 -0.1808 -0.5961
vn -0.9780 -0.0606 -0.1997
vn -0.3189 -0.4468 -0.8359
vn -0.7823 -0.2937 -0.5494
vn -0.9780 -0.0984 -0.1840
vn -0.3189 -0.6013 -0.7326
vn -0.7823 -0.3952 -0.4815
vn -0.9780 -0.1324 -0.1613
vn -0.3189 -0.7326 -0.6013
vn -0.7823 -0.4815 -0.3952
vn -0.9780 -0.1613 -0.1324
vn -0.3189 -0.8359 -0.4468
vn -0.7823 -0.5494 -0.2937
vn -0.9780 -0.1840 -0.0984
vn -0.3189 -0.9070 -0.2751
vn -0.7823 -0.5961 -0.1808
vn -0.9780 -0.1997 -0.0606
vn -0.3189 -0.9432 -0.0929
vn -0.7823 -0.6199 -0.0611
vn -0.9780 -0.2077 -0.0205
vn -0.3189 -0.9432 0.0929
vn -0.7823 -0.6199 0.0611
vn -0.9780 -0.2077 0.0205
vn -0.3189 -0.9070 0.2751
vn -0.7823 -0.5961 0.1808
vn -0.9780 -0.1997 0.0606
vn -0.3189 -0.8359 0.4468
vn -0.7823 -0.5494 0.2937
vn -0.9780 -0.1840 0.0984
vn -0.3189 -0.7326 0.6013
vn -0.7823 -0.4815 0.3952
vn -0.9780 -0.1613 0.1324
vn -0.3189 -0.6013 0.7326
vn -0.7823 -0.3952 0.4815
vn -0.9780 -0.1324 0.1613
vn -0.3189 -0.4468 0.8359
vn -0.7823 -0.2937 0.5494
vn -0.9780 -0.0984 0.1840
vn -0.3189 -0.2751 0.9070
vn -0.7823 -0.1808 0.5961
vn -0.9780 -0.0606 0.1997
vn -0.3189 -0.0929 0.9432
vn -0.7823 -0.0611 0.6199
vn -0.9780 -0.0205 0.2077
vn -0.3189 0.0929 0.9432
vn -0.7823 0.0611 0.6199
vn -0.9780 0.0205 0.2077
vn -0.3189 0.2751 0.9070
vn -0.7823 0.1808 0.5961
vn -0.9780 0.0606 0.1997
vn -0.3189 0.4468 0.8359
vn -0.7823 0.2937 0.5494
vn -0.9780 0.0984 0.1840
vn -0.3189 0.6013 0.7326
vn -0.7823 0.3952 0.4815
vn -0.9780 0.1324 0.1613
vn -0.3189 0.7326 0.6013
vn -0.7823 0.4815 0.3952
vn -0.9780 0.1613 0.1324
vn -0.3189 0.8359 0.4468
vn -0.7823 0.5494 0.2937
vn -0.9780 0.1840 0.0984
vn -0.3189 0.9070 0.2751
vn -0.7823 0.5961 0.1808
vn -0.9780 0.1997 0.0606
vn -0.3189 0.9432 0.0929
vn -0.7823 0.6199 0.0611
vn -0.9780 0.2077 0.0205
vn -0.3189 0.9432 -0.0929
vn -0.7823 0.6199 -0.0611
vn -0.9780 0.2077 -0.0205
vn -0.3189 0.9070 -0.2751
vn -0.7823 0.5961 -0.1808
vn -0.9780 0.1997 -0.0606
vn -0.3189 0.8359 -0.4468
vn -0.7823 0.5494 -0.2937
vn -0.9780 0.1840 -0.0984
vn -0.3189 0.7326 -0.6013
vn -0.7823 0.4815 -0.3952
vn -0.9780 0.1613 -0.1324
vn -0.3189 0.6013 -0.7326
vn -0.7823 0.3952 -0.4815
vn -0.9780 0.1324 -0.1613
vn -0.3189 0.4468 -0.8359
vn -0.7823 0.2937 -0.5494
vn -0.9780 0.0984 -0.1840
vn -0.3189 0.2751 -0.9070
vn -0.7823 0.1808 -0.5961
vn -0.9780 0.0606 -0.1997
vn -0.3189 0.0929 -0.9432
vn -0.7823 0.0611 -0.6199
vn -0.9780 0.0205 -0.2077
vn -1.0000 -0.0000 -0.0000
vn 1.0000 -0.0000 -0.0000
vt 1.000000 0.604219
vt 1.000000 0.896426
vt 0.968750 0.896426
vt 0.968750 0.604219
vt 0.906250 0.604219
vt 0.906250 0.896426
vt 0.875000 0.896426
vt 0.875000 0.604219
vt 0.843750 0.896426
vt 0.843750 0.604219
vt 0.812500 0.896426
vt 0.812500 0.604219
vt 0.781250 0.896426
vt 0.781250 0.604219
vt 0.750000 0.896426
vt 0.750000 0.604219
vt 0.718750 0.896426
vt 0.718750 0.604219
vt 0.687500 0.896426
vt 0.687500 0.604219
vt 0.656250 0.896426
vt 0.656250 0.604219
vt 0.625000 0.896426
vt 0.625000 0.604219
vt 0.593750 0.896426
vt 0.593750 0.604219
vt 0.562500 0.896426
vt 0.562500 0.604219
vt 0.531250 0.896426
vt 0.531250 0.604219
vt 0.500000 0.896426
vt 0.500000 0.604219
vt 0.468750 0.896426
vt 0.468750 0.604219
vt 0.437500 0.896426
vt 0.437500 0.604219
vt 0.406250 0.896426
vt 0.406250 0.604219
vt 0.375000 0.896426
vt 0.375000 0.604219
vt 0.343750 0.896426
vt 0.343750 0.604219
vt 0.312500 0.896426
vt 0.312500 0.604219
vt 0.281250 0.896426
vt 0.281250 0.604219
vt 0.250000 0.896426
vt 0.250000 0.604219
vt 0.218750 0.896426
vt 0.218750 0.604219
vt 0.187500 0.896426
vt 0.187500 0.604219
vt 0.156250 0.896426
vt 0.156250 0.604219
vt 0.125000 0.896426
vt 0.125000 0.604219
vt 0.093750 0.896426
vt 0.093750 0.604219
vt 0.062500 0.896426
vt 0.062500 0.604219
vt 0.031250 0.896426
vt 0.031250 0.604219
vt 0.937500 0.896426
vt 0.937500 0.604219
vt 0.000000 0.896426
vt 0.000000 0.604219
vt 0.999129 1.000000
vt 0.969621 1.000000
vt 0.295516 0.485517
vt 0.251306 0.489871
vt 0.250000 0.440044
vt 0.287076 0.436392
vt 0.250000 0.390088
vt 0.277330 0.387396
vt 0.967879 1.000000
vt 0.938371 1.000000
vt 0.340588 0.472112
vt 0.298077 0.485008
vt 0.322727 0.425578
vt 0.303609 0.379424
vt 0.936629 1.000000
vt 0.907121 1.000000
vt 0.382180 0.450171
vt 0.343001 0.471113
vt 0.355583 0.408016
vt 0.327829 0.366479
vt 0.905379 1.000000
vt 0.875871 1.000000
vt 0.418691 0.420538
vt 0.384351 0.448720
vt 0.384381 0.384381
vt 0.349057 0.349057
vt 0.874129 1.000000
vt 0.844621 1.000000
vt 0.448720 0.384351
vt 0.420538 0.418691
vt 0.408016 0.355583
vt 0.366479 0.327829
vt 0.842879 1.000000
vt 0.813371 1.000000
vt 0.471113 0.343001
vt 0.450171 0.382180
vt 0.425578 0.322727
vt 0.379424 0.303609
vt 0.811629 1.000000
vt 0.782121 1.000000
vt 0.485008 0.298077
vt 0.472112 0.340589
vt 0.436392 0.287076
vt 0.387396 0.277330
vt 0.780379 1.000000
vt 0.750871 1.000000
vt 0.489871 0.251306
vt 0.485517 0.295516
vt 0.440044 0.250000
vt 0.390088 0.250000
vt 0.749129 1.000000
vt 0.719621 1.000000
vt 0.485517 0.204484
vt 0.489871 0.248694
vt 0.436392 0.212924
vt 0.387396 0.222670
vt 0.717879 1.000000
vt 0.688371 1.000000
vt 0.472112 0.159412
vt 0.485008 0.201923
vt 0.425578 0.177273
vt 0.379424 0.196391
vt 0.686629 1.000000
vt 0.657121 1.000000
vt 0.450171 0.117820
vt 0.471113 0.156999
vt 0.408016 0.144417
vt 0.366479 0.172171
vt 0.655379 1.000000
vt 0.625871 1.000000
vt 0.420538 0.081309
vt 0.448720 0.115649
vt 0.384381 0.115619
vt 0.349057 0.150943
vt 0.624129 1.000000
vt 0.594621 1.000000
vt 0.384351 0.051280
vt 0.418691 0.079462
vt 0.355583 0.091984
vt 0.327829 0.133521
vt 0.592879 1.000000
vt 0.563371 1.000000
vt 0.343001 0.028887
vt 0.382180 0.049829
vt 0.322727 0.074422
vt 0.303609 0.120576
vt 0.561629 1.000000
vt 0.532121 1.000000
vt 0.298077 0.014992
vt 0.340589 0.027888
vt 0.287076 0.063608
vt 0.277330 0.112604
vt 0.530379 1.000000
vt 0.500871 1.000000
vt 0.251306 0.010129
vt 0.295516 0.014483
vt 0.250000 0.059956
vt 0.250000 0.109912
vt 0.499129 1.000000
vt 0.469621 1.000000
vt 0.204484 0.014483
vt 0.248694 0.010129
vt 0.212924 0.063608
vt 0.222670 0.112604
vt 0.467879 1.000000
vt 0.438371 1.000000
vt 0.159412 0.027888
vt 0.201923 0.014992
vt 0.177273 0.074422
vt 0.196391 0.120576
vt 0.436629 1.000000
vt 0.407121 1.000000
vt 0.117820 0.049829
vt 0.156999 0.028887
vt 0.144417 0.091984
vt 0.172171 0.133521
vt 0.405379 1.000000
vt 0.375871 1.000000
vt 0.081309 0.079462
vt 0.115649 0.051280
vt 0.115619 0.115619
vt 0.150943 0.150943
vt 0.374129 1.000000
vt 0.344621 1.000000
vt 0.051280 0.115649
vt 0.079462 0.081309
vt 0.091984 0.144417
vt 0.133521 0.172171
vt 0.342879 1.000000
vt 0.313371 1.000000
vt 0.028887 0.156999
vt 0.049829 0.117820
vt 0.074422 0.177273
vt 0.120576 0.196391
vt 0.311629 1.000000
vt 0.282121 1.000000
vt 0.014992 0.201923
vt 0.027888 0.159412
vt 0.063608 0.212924
vt 0.112604 0.222670
vt 0.280379 1.000000
vt 0.250871 1.000000
vt 0.010129 0.248694
vt 0.014483 0.204484
vt 0.059956 0.250000
vt 0.109912 0.250000
vt 0.249129 1.000000
vt 0.219621 1.000000
vt 0.014483 0.295516
vt 0.010129 0.251306
vt 0.063608 0.287076
vt 0.112604 0.277330
vt 0.217879 1.000000
vt 0.188371 1.000000
vt 0.027888 0.340588
vt 0.014992 0.298077
vt 0.074422 0.322727
vt 0.120576 0.303609
vt 0.186629 1.000000
vt 0.157121 1.000000
vt 0.049829 0.382180
vt 0.028887 0.343001
vt 0.091984 0.355583
vt 0.133521 0.327829
vt 0.155379 1.000000
vt 0.125871 1.000000
vt 0.079462 0.418691
vt 0.051280 0.384351
vt 0.115619 0.384381
vt 0.150943 0.349057
vt 0.124129 1.000000
vt 0.094621 1.000000
vt 0.115649 0.448720
vt 0.081309 0.420538
vt 0.144417 0.408016
vt 0.172171 0.366479
vt 0.092879 1.000000
vt 0.063371 1.000000
vt 0.156999 0.471113
vt 0.117820 0.450171
vt 0.177273 0.425578
vt 0.196391 0.379424
vt 0.061629 1.000000
vt 0.032121 1.000000
vt 0.201923 0.485008
vt 0.159412 0.472112
vt 0.212924 0.436392
vt 0.222670 0.387396
vt 0.030379 1.000000
vt 0.000871 1.000000
vt 0.248694 0.489871
vt 0.204484 0.485517
vt 0.969627 0.552109
vt 0.999123 0.552109
vt 0.972023 0.500000
vt 0.996727 0.500000
vt 0.754903 0.489517
vt 0.791918 0.485871
vt 0.777209 0.386786
vt 0.750000 0.389466
vt 0.938377 0.552109
vt 0.967873 0.552109
vt 0.940773 0.500000
vt 0.965477 0.500000
vt 0.801536 0.483958
vt 0.837129 0.473161
vt 0.803372 0.378850
vt 0.907127 0.552109
vt 0.936623 0.552109
vt 0.909523 0.500000
vt 0.934227 0.500000
vt 0.846189 0.469408
vt 0.878992 0.451875
vt 0.827483 0.365962
vt 0.875877 0.552109
vt 0.905373 0.552109
vt 0.878273 0.500000
vt 0.902977 0.500000
vt 0.887146 0.446427
vt 0.915897 0.422831
vt 0.848617 0.348617
vt 0.844627 0.552109
vt 0.874123 0.552109
vt 0.847023 0.500000
vt 0.871727 0.500000
vt 0.922831 0.415897
vt 0.946427 0.387146
vt 0.865962 0.327483
vt 0.813377 0.552109
vt 0.842873 0.552109
vt 0.815773 0.500000
vt 0.840477 0.500000
vt 0.951875 0.378992
vt 0.969408 0.346189
vt 0.878850 0.303371
vt 0.782127 0.552109
vt 0.811623 0.552109
vt 0.784523 0.500000
vt 0.809227 0.500000
vt 0.973161 0.337129
vt 0.983958 0.301537
vt 0.886786 0.277208
vt 0.750877 0.552109
vt 0.780373 0.552109
vt 0.753273 0.500000
vt 0.777977 0.500000
vt 0.985871 0.291918
vt 0.989517 0.254903
vt 0.889466 0.250000
vt 0.719627 0.552109
vt 0.749123 0.552109
vt 0.722023 0.500000
vt 0.746727 0.500000
vt 0.989517 0.245097
vt 0.985871 0.208082
vt 0.886786 0.222791
vt 0.688377 0.552109
vt 0.717873 0.552109
vt 0.690773 0.500000
vt 0.715477 0.500000
vt 0.983958 0.198463
vt 0.973161 0.162871
vt 0.878850 0.196629
vt 0.657127 0.552109
vt 0.686623 0.552109
vt 0.659523 0.500000
vt 0.684227 0.500000
vt 0.969409 0.153811
vt 0.951875 0.121008
vt 0.865962 0.172517
vt 0.625877 0.552109
vt 0.655373 0.552109
vt 0.628273 0.500000
vt 0.652977 0.500000
vt 0.946427 0.112854
vt 0.922831 0.084103
vt 0.848617 0.151383
vt 0.594627 0.552109
vt 0.624123 0.552109
vt 0.597023 0.500000
vt 0.621727 0.500000
vt 0.915897 0.077169
vt 0.887146 0.053573
vt 0.827483 0.134038
vt 0.563377 0.552109
vt 0.592873 0.552109
vt 0.565773 0.500000
vt 0.590477 0.500000
vt 0.878992 0.048125
vt 0.846189 0.030592
vt 0.803371 0.121150
vt 0.532127 0.552109
vt 0.561623 0.552109
vt 0.534523 0.500000
vt 0.559227 0.500000
vt 0.837129 0.026839
vt 0.801537 0.016042
vt 0.777208 0.113214
vt 0.500877 0.552109
vt 0.530373 0.552109
vt 0.503273 0.500000
vt 0.527977 0.500000
vt 0.791918 0.014129
vt 0.754903 0.010483
vt 0.750000 0.110534
vt 0.469627 0.552109
vt 0.499123 0.552109
vt 0.472023 0.500000
vt 0.496727 0.500000
vt 0.745097 0.010483
vt 0.708082 0.014129
vt 0.722792 0.113214
vt 0.438377 0.552109
vt 0.467873 0.552109
vt 0.440773 0.500000
vt 0.465477 0.500000
vt 0.698463 0.016042
vt 0.662871 0.026839
vt 0.696629 0.121150
vt 0.407127 0.552109
vt 0.436623 0.552109
vt 0.409523 0.500000
vt 0.434227 0.500000
vt 0.653811 0.030592
vt 0.621008 0.048125
vt 0.672517 0.134038
vt 0.375877 0.552109
vt 0.405373 0.552109
vt 0.378273 0.500000
vt 0.402977 0.500000
vt 0.612855 0.053573
vt 0.584103 0.077169
vt 0.651383 0.151383
vt 0.344627 0.552109
vt 0.374123 0.552109
vt 0.347023 0.500000
vt 0.371727 0.500000
vt 0.577169 0.084103
vt 0.553573 0.112854
vt 0.634038 0.172517
vt 0.313377 0.552109
vt 0.342873 0.552109
vt 0.315773 0.500000
vt 0.340477 0.500000
vt 0.548125 0.121008
vt 0.530591 0.153811
vt 0.621150 0.196629
vt 0.282127 0.552109
vt 0.311623 0.552109
vt 0.284523 0.500000
vt 0.309227 0.500000
vt 0.526839 0.162871
vt 0.516042 0.198463
vt 0.613214 0.222792
vt 0.250877 0.552109
vt 0.280373 0.552109
vt 0.253273 0.500000
vt 0.277977 0.500000
vt 0.514129 0.208082
vt 0.510483 0.245097
vt 0.610534 0.250000
vt 0.219627 0.552109
vt 0.249123 0.552109
vt 0.222023 0.500000
vt 0.246727 0.500000
vt 0.510483 0.254903
vt 0.514129 0.291918
vt 0.613214 0.277208
vt 0.188377 0.552109
vt 0.217873 0.552109
vt 0.190773 0.500000
vt 0.215477 0.500000
vt 0.516042 0.301537
vt 0.526839 0.337129
vt 0.621150 0.303371
vt 0.157127 0.552109
vt 0.186623 0.552109
vt 0.159523 0.500000
vt 0.184227 0.500000
vt 0.530592 0.346189
vt 0.548125 0.378992
vt 0.634038 0.327483
vt 0.125877 0.552109
vt 0.155373 0.552109
vt 0.128273 0.500000
vt 0.152977 0.500000
vt 0.553573 0.387146
vt 0.577169 0.415897
vt 0.651383 0.348617
vt 0.094627 0.552109
vt 0.124123 0.552109
vt 0.097023 0.500000
vt 0.121727 0.500000
vt 0.584103 0.422831
vt 0.612854 0.446427
vt 0.672517 0.365962
vt 0.063377 0.552109
vt 0.092873 0.552109
vt 0.065773 0.500000
vt 0.090477 0.500000
vt 0.621008 0.451875
vt 0.653811 0.469408
vt 0.696629 0.378850
vt 0.032127 0.552109
vt 0.061623 0.552109
vt 0.034523 0.500000
vt 0.059227 0.500000
vt 0.662871 0.473161
vt 0.698463 0.483958
vt 0.722792 0.386786
vt 0.000877 0.552109
vt 0.030373 0.552109
vt 0.003273 0.500000
vt 0.027977 0.500000
vt 0.708082 0.485871
vt 0.745097 0.489517
s 0
usemtl Material.001
f 130/1/1 2/2/1 6/3/1 133/4/1
f 141/5/2 14/6/2 18/7/2 145/8/2
f 145/8/3 18/7/3 22/9/3 149/10/3
f 149/10/4 22/9/4 26/11/4 153/12/4
f 153/12/5 26/11/5 30/13/5 157/14/5
f 157/14/6 30/13/6 34/15/6 161/16/6
f 161/16/7 34/15/7 38/17/7 165/18/7
f 165/18/8 38/17/8 42/19/8 169/20/8
f 169/20/9 42/19/9 46/21/9 173/22/9
f 173/22/10 46/21/10 50/23/10 177/24/10
f 177/24/11 50/23/11 54/25/11 181/26/11
f 181/26/12 54/25/12 58/27/12 185/28/12
f 185/28/13 58/27/13 62/29/13 189/30/13
f 189/30/14 62/29/14 66/31/14 193/32/14
f 193/32/15 66/31/15 70/33/15 197/34/15
f 197/34/16 70/33/16 74/35/16 201/36/16
f 201/36/17 74/35/17 78/37/17 205/38/17
f 205/38/18 78/37/18 82/39/18 209/40/18
f 209/40/19 82/39/19 86/41/19 213/42/19
f 213/42/20 86/41/20 90/43/20 217/44/20
f 217/44/21 90/43/21 94/45/21 221/46/21
f 221/46/22 94/45/22 98/47/22 225/48/22
f 225/48/23 98/47/23 102/49/23 229/50/23
f 229/50/24 102/49/24 106/51/24 233/52/24
f 233/52/25 106/51/25 110/53/25 237/54/25
f 237/54/26 110/53/26 114/55/26 241/56/26
f 241/56/27 114/55/27 118/57/27 245/58/27
f 245/58/28 118/57/28 122/59/28 249/60/28
f 249/60/29 122/59/29 126/61/29 253/62/29
f 133/4/30 6/3/30 10/63/30 137/64/30
f 137/64/31 10/63/31 14/6/31 141/5/31
f 253/62/32 126/61/32 2/65/32 130/66/32
f 6/3/33 2/2/33 4/67/33 8/68/33
f 8/69/34 4/70/34 3/71/34 7/72/34
f 7/72/35 3/71/35 1/73/35 5/74/35
f 10/63/36 6/3/36 8/75/36 12/76/36
f 12/77/37 8/78/37 7/72/37 11/79/37
f 11/79/38 7/72/38 5/74/38 9/80/38
f 14/6/39 10/63/39 12/81/39 16/82/39
f 16/83/40 12/84/40 11/79/40 15/85/40
f 15/85/41 11/79/41 9/80/41 13/86/41
f 18/7/42 14/6/42 16/87/42 20/88/42
f 20/89/43 16/90/43 15/85/43 19/91/43
f 19/91/44 15/85/44 13/86/44 17/92/44
f 22/9/45 18/7/45 20/93/45 24/94/45
f 24/95/46 20/96/46 19/91/46 23/97/46
f 23/97/47 19/91/47 17/92/47 21/98/47
f 26/11/48 22/9/48 24/99/48 28/100/48
f 28/101/49 24/102/49 23/97/49 27/103/49
f 27/103/50 23/97/50 21/98/50 25/104/50
f 30/13/51 26/11/51 28/105/51 32/106/51
f 32/107/52 28/108/52 27/103/52 31/109/52
f 31/109/53 27/103/53 25/104/53 29/110/53
f 34/15/54 30/13/54 32/111/54 36/112/54
f 36/113/55 32/114/55 31/109/55 35/115/55
f 35/115/56 31/109/56 29/110/56 33/116/56
f 38/17/57 34/15/57 36/117/57 40/118/57
f 40/119/58 36/120/58 35/115/58 39/121/58
f 39/121/59 35/115/59 33/116/59 37/122/59
f 42/19/60 38/17/60 40/123/60 44/124/60
f 44/125/61 40/126/61 39/121/61 43/127/61
f 43/127/62 39/121/62 37/122/62 41/128/62
f 46/21/63 42/19/63 44/129/63 48/130/63
f 48/131/64 44/132/64 43/127/64 47/133/64
f 47/133/65 43/127/65 41/128/65 45/134/65
f 50/23/66 46/21/66 48/135/66 52/136/66
f 52/137/67 48/138/67 47/133/67 51/139/67
f 51/139/68 47/133/68 45/134/68 49/140/68
f 54/25/69 50/23/69 52/141/69 56/142/69
f 56/143/70 52/144/70 51/139/70 55/145/70
f 55/145/71 51/139/71 49/140/71 53/146/71
f 58/27/72 54/25/72 56/147/72 60/148/72
f 60/149/73 56/150/73 55/145/73 59/151/73
f 59/151/74 55/145/74 53/146/74 57/152/74
f 62/29/75 58/27/75 60/153/75 64/154/75
f 64/155/76 60/156/76 59/151/76 63/157/76
f 63/157/77 59/151/77 57/152/77 61/158/77
f 66/31/78 62/29/78 64/159/78 68/160/78
f 68/161/79 64/162/79 63/157/79 67/163/79
f 67/163/80 63/157/80 61/158/80 65/164/80
f 70/33/81 66/31/81 68/165/81 72/166/81
f 72/167/82 68/168/82 67/163/82 71/169/82
f 71/169/83 67/163/83 65/164/83 69/170/83
f 74/35/84 70/33/84 72/171/84 76/172/84
f 76/173/85 72/174/85 71/169/85 75/175/85
f 75/175/86 71/169/86 69/170/86 73/176/86
f 78/37/87 74/35/87 76/177/87 80/178/87
f 80/179/88 76/180/88 75/175/88 79/181/88
f 79/181/89 75/175/89 73/176/89 77/182/89
f 82/39/90 78/37/90 80/183/90 84/184/90
f 84/185/91 80/186/91 79/181/91 83/187/91
f 83/187/92 79/181/92 77/182/92 81/188/92
f 86/41/93 82/39/93 84/189/93 88/190/93
f 88/191/94 84/192/94 83/187/94 87/193/94
f 87/193/95 83/187/95 81/188/95 85/194/95
f 90/43/96 86/41/96 88/195/96 92/196/96
f 92/197/97 88/198/97 87/193/97 91/199/97
f 91/199/98 87/193/98 85/194/98 89/200/98
f 94/45/99 90/43/99 92/201/99 96/202/99
f 96/203/100 92/204/100 91/199/100 95/205/100
f 95/205/101 91/199/101 89/200/101 93/206/101
f 98/47/102 94/45/102 96/207/102 100/208/102
f 100/209/103 96/210/103 95/205/103 99/211/103
f 99/211/104 95/205/104 93/206/104 97/212/104
f 102/49/105 98/47/105 100/213/105 104/214/105
f 104/215/106 100/216/106 99/211/106 103/217/106
f 103/217/107 99/211/107 97/212/107 101/218/107
f 106/51/108 102/49/108 104/219/108 108/220/108
f 108/221/109 104/222/109 103/217/109 107/223/109
f 107/223/110 103/217/110 101/218/110 105/224/110
f 110/53/111 106/51/111 108/225/111 112/226/111
f 112/227/112 108/228/112 107/223/112 111/229/112
f 111/229/113 107/223/113 105/224/113 109/230/113
f 114/55/114 110/53/114 112/231/114 116/232/114
f 116/233/115 112/234/115 111/229/115 115/235/115
f 115/235/116 111/229/116 109/230/116 113/236/116
f 118/57/117 114/55/117 116/237/117 120/238/117
f 120/239/118 116/240/118 115/235/118 119/241/118
f 119/241/119 115/235/119 113/236/119 117/242/119
f 122/59/120 118/57/120 120/243/120 124/244/120
f 124/245/121 120/246/121 119/241/121 123/247/121
f 123/247/122 119/241/122 117/242/122 121/248/122
f 126/61/123 122/59/123 124/249/123 128/250/123
f 128/251/124 124/252/124 123/247/124 127/253/124
f 127/253/125 123/247/125 121/248/125 125/254/125
f 2/65/126 126/61/126 128/255/126 4/256/126
f 4/257/127 128/258/127 127/253/127 3/71/127
f 3/71/128 127/253/128 125/254/128 1/73/128
f 109/230/9 105/224/9 475/224/9 476/230/9
f 130/1/129 133/4/129 135/259/129 132/260/129
f 132/260/130 135/259/130 136/261/130 131/262/130
f 131/263/131 136/264/131 134/265/131 129/266/131
f 133/4/132 137/64/132 139/267/132 135/268/132
f 135/268/133 139/267/133 140/269/133 136/270/133
f 136/271/134 140/272/134 138/273/134 134/265/134
f 137/64/135 141/5/135 143/274/135 139/275/135
f 139/275/136 143/274/136 144/276/136 140/277/136
f 140/278/137 144/279/137 142/280/137 138/273/137
f 141/5/138 145/8/138 147/281/138 143/282/138
f 143/282/139 147/281/139 148/283/139 144/284/139
f 144/285/140 148/286/140 146/287/140 142/280/140
f 145/8/141 149/10/141 151/288/141 147/289/141
f 147/289/142 151/288/142 152/290/142 148/291/142
f 148/292/143 152/293/143 150/294/143 146/287/143
f 149/10/144 153/12/144 155/295/144 151/296/144
f 151/296/145 155/295/145 156/297/145 152/298/145
f 152/299/146 156/300/146 154/301/146 150/294/146
f 153/12/147 157/14/147 159/302/147 155/303/147
f 155/303/148 159/302/148 160/304/148 156/305/148
f 156/306/149 160/307/149 158/308/149 154/301/149
f 157/14/150 161/16/150 163/309/150 159/310/150
f 159/310/151 163/309/151 164/311/151 160/312/151
f 160/313/152 164/314/152 162/315/152 158/308/152
f 161/16/153 165/18/153 167/316/153 163/317/153
f 163/317/154 167/316/154 168/318/154 164/319/154
f 164/320/155 168/321/155 166/322/155 162/315/155
f 165/18/156 169/20/156 171/323/156 167/324/156
f 167/324/157 171/323/157 172/325/157 168/326/157
f 168/327/158 172/328/158 170/329/158 166/322/158
f 169/20/159 173/22/159 175/330/159 171/331/159
f 171/331/160 175/330/160 176/332/160 172/333/160
f 172/334/161 176/335/161 174/336/161 170/329/161
f 173/22/162 177/24/162 179/337/162 175/338/162
f 175/338/163 179/337/163 180/339/163 176/340/163
f 176/341/164 180/342/164 178/343/164 174/336/164
f 177/24/165 181/26/165 183/344/165 179/345/165
f 179/345/166 183/344/166 184/346/166 180/347/166
f 180/348/167 184/349/167 182/350/167 178/343/167
f 181/26/168 185/28/168 187/351/168 183/352/168
f 183/352/169 187/351/169 188/353/169 184/354/169
f 184/355/170 188/356/170 186/357/170 182/350/170
f 185/28/171 189/30/171 191/358/171 187/359/171
f 187/359/172 191/358/172 192/360/172 188/361/172
f 188/362/173 192/363/173 190/364/173 186/357/173
f 189/30/174 193/32/174 195/365/174 191/366/174
f 191/366/175 195/365/175 196/367/175 192/368/175
f 192/369/176 196/370/176 194/371/176 190/364/176
f 193/32/177 197/34/177 199/372/177 195/373/177
f 195/373/178 199/372/178 200/374/178 196/375/178
f 196/376/179 200/377/179 198/378/179 194/371/179
f 197/34/180 201/36/180 203/379/180 199/380/180
f 199/380/181 203/379/181 204/381/181 200/382/181
f 200/383/182 204/384/182 202/385/182 198/378/182
f 201/36/183 205/38/183 207/386/183 203/387/183
f 203/387/184 207/386/184 208/388/184 204/389/184
f 204/390/185 208/391/185 206/392/185 202/385/185
f 205/38/186 209/40/186 211/393/186 207/394/186
f 207/394/187 211/393/187 212/395/187 208/396/187
f 208/397/188 212/398/188 210/399/188 206/392/188
f 209/40/189 213/42/189 215/400/189 211/401/189
f 211/401/190 215/400/190 216/402/190 212/403/190
f 212/404/191 216/405/191 214/406/191 210/399/191
f 213/42/192 217/44/192 219/407/192 215/408/192
f 215/408/193 219/407/193 220/409/193 216/410/193
f 216/411/194 220/412/194 218/413/194 214/406/194
f 217/44/195 221/46/195 223/414/195 219/415/195
f 219/415/196 223/414/196 224/416/196 220/417/196
f 220/418/197 224/419/197 222/420/197 218/413/197
f 221/46/198 225/48/198 227/421/198 223/422/198
f 223/422/199 227/421/199 228/423/199 224/424/199
f 224/425/200 228/426/200 226/427/200 222/420/200
f 225/48/201 229/50/201 231/428/201 227/429/201
f 227/429/202 231/428/202 232/430/202 228/431/202
f 228/432/203 232/433/203 230/434/203 226/427/203
f 229/50/204 233/52/204 235/435/204 231/436/204
f 231/436/205 235/435/205 236/437/205 232/438/205
f 232/439/206 236/440/206 234/441/206 230/434/206
f 233/52/207 237/54/207 239/442/207 235/443/207
f 235/443/208 239/442/208 240/444/208 236/445/208
f 236/446/209 240/447/209 238/448/209 234/441/209
f 237/54/210 241/56/210 243/449/210 239/450/210
f 239/450/211 243/449/211 244/451/211 240/452/211
f 240/453/212 244/454/212 242/455/212 238/448/212
f 241/56/213 245/58/213 247/456/213 243/457/213
f 243/457/214 247/456/214 248/458/214 244/459/214
f 244/460/215 248/461/215 246/462/215 242/455/215
f 245/58/216 249/60/216 251/463/216 247/464/216
f 247/464/217 251/463/217 252/465/217 248/466/217
f 248/467/218 252/468/218 250/469/218 246/462/218
f 249/60/219 253/62/219 255/470/219 251/471/219
f 251/471/220 255/470/220 256/472/220 252/473/220
f 252/474/221 256/475/221 254/476/221 250/469/221
f 253/62/222 130/66/222 132/477/222 255/478/222
f 255/478/223 132/477/223 131/479/223 256/480/223
f 256/481/224 131/482/224 129/266/224 254/476/224
f 198/378/30 202/385/30 403/385/30 402/378/30
f 401/371/1 402/378/1 434/378/1 433/371/1
f 206/392/2 210/399/2 405/399/2 404/392/2
f 254/476/14 129/266/14 386/266/14 416/476/14
f 214/406/4 218/413/4 407/413/4 406/406/4
f 129/266/15 134/265/15 385/265/15 386/266/15
f 222/420/6 226/427/6 409/427/6 408/420/6
f 138/273/17 142/280/17 388/280/17 387/273/17
f 230/434/8 234/441/8 411/441/8 410/434/8
f 146/287/19 150/294/19 390/294/19 389/287/19
f 238/448/10 242/455/10 413/455/10 412/448/10
f 154/301/21 158/308/21 392/308/21 391/301/21
f 246/462/12 250/469/12 415/469/12 414/462/12
f 162/315/23 166/322/23 394/322/23 393/315/23
f 170/329/25 174/336/25 396/336/25 395/329/25
f 178/343/27 182/350/27 398/350/27 397/343/27
f 186/357/29 190/364/29 400/364/29 399/357/29
f 194/371/1 198/378/1 402/378/1 401/371/1
f 202/385/31 206/392/31 404/392/31 403/385/31
f 210/399/3 214/406/3 406/406/3 405/399/3
f 218/413/5 222/420/5 408/420/5 407/413/5
f 134/265/16 138/273/16 387/273/16 385/265/16
f 226/427/7 230/434/7 410/434/7 409/427/7
f 142/280/18 146/287/18 389/287/18 388/280/18
f 234/441/9 238/448/9 412/448/9 411/441/9
f 150/294/20 154/301/20 391/301/20 390/294/20
f 242/455/11 246/462/11 414/462/11 413/455/11
f 158/308/22 162/315/22 393/315/22 392/308/22
f 250/469/13 254/476/13 416/476/13 415/469/13
f 166/322/24 170/329/24 395/329/24 394/322/24
f 174/336/26 178/343/26 397/343/26 396/336/26
f 182/350/28 186/357/28 399/357/28 398/350/28
f 190/364/32 194/371/32 401/371/32 400/364/32
f 418/266/225 417/265/225 419/273/225 420/280/225 421/287/225 422/294/225 423/301/225 424/308/225 425/315/225 426/322/225 427/329/225 428/336/225 429/343/225 430/350/225 431/357/225 432/364/225 433/371/225 434/378/225 435/385/225 436/392/225 437/399/225 438/406/225 439/413/225 440/420/225 441/427/225 442/434/225 443/441/225 444/448/225 445/455/225 446/462/225 447/469/225 448/476/225
f 388/280/18 389/287/18 421/287/18 420/280/18
f 415/469/13 416/476/13 448/476/13 447/469/13
f 402/378/30 403/385/30 435/385/30 434/378/30
f 389/287/19 390/294/19 422/294/19 421/287/19
f 416/476/14 386/266/14 418/266/14 448/476/14
f 403/385/31 404/392/31 436/392/31 435/385/31
f 390/294/20 391/301/20 423/301/20 422/294/20
f 404/392/2 405/399/2 437/399/2 436/392/2
f 391/301/21 392/308/21 424/308/21 423/301/21
f 405/399/3 406/406/3 438/406/3 437/399/3
f 392/308/22 393/315/22 425/315/22 424/308/22
f 406/406/4 407/413/4 439/413/4 438/406/4
f 393/315/23 394/322/23 426/322/23 425/315/23
f 407/413/5 408/420/5 440/420/5 439/413/5
f 394/322/24 395/329/24 427/329/24 426/322/24
f 408/420/6 409/427/6 441/427/6 440/420/6
f 395/329/25 396/336/25 428/336/25 427/329/25
f 409/427/7 410/434/7 442/434/7 441/427/7
f 396/336/26 397/343/26 429/343/26 428/336/26
f 410/434/8 411/441/8 443/441/8 442/434/8
f 397/343/27 398/350/27 430/350/27 429/343/27
f 411/441/9 412/448/9 444/448/9 443/441/9
f 398/350/28 399/357/28 431/357/28 430/350/28
f 386/266/15 385/265/15 417/265/15 418/266/15
f 412/448/10 413/455/10 445/455/10 444/448/10
f 399/357/29 400/364/29 432/364/29 431/357/29
f 385/265/16 387/273/16 419/273/16 417/265/16
f 413/455/11 414/462/11 446/462/11 445/455/11
f 400/364/32 401/371/32 433/371/32 432/364/32
f 387/273/17 388/280/17 420/280/17 419/273/17
f 414/462/12 415/469/12 447/469/12 446/462/12
f 450/74/226 449/73/226 480/254/226 479/248/226 478/242/226 477/236/226 476/230/226 475/224/226 474/218/226 473/212/226 472/206/226 471/200/226 470/194/226 469/188/226 468/182/226 467/176/226 466/170/226 465/164/226 464/158/226 463/152/226 462/146/226 461/140/226 460/134/226 459/128/226 458/122/226 457/116/226 456/110/226 455/104/226 454/98/226 453/92/226 452/86/226 451/80/226
f 25/104/20 21/98/20 454/98/20 455/104/20
f 117/242/11 113/236/11 477/236/11 478/242/11
f 33/116/22 29/110/22 456/110/22 457/116/22
f 125/254/13 121/248/13 479/248/13 480/254/13
f 41/128/24 37/122/24 458/122/24 459/128/24
f 49/140/26 45/134/26 460/134/26 461/140/26
f 57/152/28 53/146/28 462/146/28 463/152/28
f 65/164/32 61/158/32 464/158/32 465/164/32
f 73/176/30 69/170/30 466/170/30 467/176/30
f 81/188/2 77/182/2 468/182/2 469/188/2
f 1/73/14 125/254/14 480/254/14 449/73/14
f 89/200/4 85/194/4 470/194/4 471/200/4
f 5/74/15 1/73/15 449/73/15 450/74/15
f 97/212/6 93/206/6 472/206/6 473/212/6
f 13/86/17 9/80/17 451/80/17 452/86/17
f 105/224/8 101/218/8 474/218/8 475/224/8
f 21/98/19 17/92/19 453/92/19 454/98/19
f 113/236/10 109/230/10 476/230/10 477/236/10
f 29/110/21 25/104/21 455/104/21 456/110/21
f 121/248/12 117/242/12 478/242/12 479/248/12
f 37/122/23 33/116/23 457/116/23 458/122/23
f 45/134/25 41/128/25 459/128/25 460/134/25
f 53/146/27 49/140/27 461/140/27 462/146/27
f 61/158/29 57/152/29 463/152/29 464/158/29
f 69/170/1 65/164/1 465/164/1 466/170/1
f 77/182/31 73/176/31 467/176/31 468/182/31
f 85/194/3 81/188/3 469/188/3 470/194/3
f 93/206/5 89/200/5 471/200/5 472/206/5
f 9/80/16 5/74/16 450/74/16 451/80/16
f 101/218/7 97/212/7 473/212/7 474/218/7
f 17/92/18 13/86/18 452/86/18 453/92/18
l 129 257
l 134 258
l 138 259
l 142 260
l 146 261
l 150 262
l 154 263
l 158 264
l 162 265
l 166 266
l 170 267
l 174 268
l 178 269
l 182 270
l 186 271
l 190 272
l 194 273
l 198 274
l 202 275
l 206 276
l 210 277
l 214 278
l 218 279
l 222 280
l 226 281
l 230 282
l 234 283
l 238 284
l 242 285
l 246 286
l 250 287
l 254 288
l 129 289
l 134 290
l 138 291
l 142 292
l 146 293
l 150 294
l 154 295
l 158 296
l 162 297
l 166 298
l 170 299
l 174 300
l 178 301
l 182 302
l 186 303
l 190 304
l 194 305
l 198 306
l 202 307
l 206 308
l 210 309
l 214 310
l 218 311
l 222 312
l 226 313
l 230 314
l 234 315
l 238 316
l 242 317
l 246 318
l 250 319
l 254 320
l 129 321
l 134 322
l 138 323
l 142 324
l 146 325
l 150 326
l 154 327
l 158 328
l 162 329
l 166 330
l 170 331
l 174 332
l 178 333
l 182 334
l 186 335
l 190 336
l 194 337
l 198 338
l 202 339
l 206 340
l 210 341
l 214 342
l 218 343
l 222 344
l 226 345
l 230 346
l 234 347
l 238 348
l 242 349
l 246 350
l 250 351
l 254 352
l 289 353
l 290 354
l 291 355
l 292 356
l 293 357
l 294 358
l 295 359
l 296 360
l 297 361
l 298 362
l 299 363
l 300 364
l 301 365
l 302 366
l 303 367
l 304 368
l 305 369
l 306 370
l 307 371
l 308 372
l 309 373
l 310 374
l 311 375
l 312 376
l 313 377
l 314 378
l 315 379
l 316 380
l 317 381
l 318 382
l 319 383
l 320 384
o Cylinder.002
v -0.476732 -3.875742 6.641889
v -0.476732 -2.681979 6.641889
v 0.881248 -3.875742 6.641889
v -0.797742 -4.278861 6.355876
v -0.476732 -3.875742 6.641889
v -0.476732 -2.681979 6.641889
v 0.881248 -3.875742 6.641889
v 0.881248 -2.681979 6.641889
v 0.881248 -2.681979 6.641889
v 1.202258 -2.278861 6.355876
v 1.202258 -4.278861 6.355876
v -0.797742 -2.278861 6.355876
v 0.917121 -2.563998 4.556436
v -0.512604 -2.563998 4.556436
v 0.874942 -2.606176 4.209299
v 0.917121 -3.993723 4.556436
v 0.874942 -3.951545 4.209299
v -0.512604 -3.993723 4.556436
v -0.470425 -3.951545 4.209299
v -0.447580 -3.928699 3.759418
v -0.470425 -2.606176 4.209299
v -0.447580 -2.629023 3.759418
v 0.852096 -2.629023 3.759418
v -0.450189 -2.626414 3.327339
v 0.854706 -2.626414 3.327340
v -0.450189 -3.931308 3.327340
v -0.465796 -2.610806 2.946934
v -0.504283 -2.572320 2.437256
v 0.870313 -2.610806 2.946935
v -0.465796 -3.946915 2.946935
v 0.870313 -3.946915 2.946934
v -0.504283 -3.985402 2.437257
v 0.908800 -3.985402 2.437256
v -0.571437 -4.052556 1.970870
v 0.975954 -4.052556 1.970869
v -0.649264 -4.130383 1.672742
v -0.571437 -2.505165 1.970869
v 0.975954 -2.505165 1.970870
v -0.649264 -2.427338 1.672742
v -0.649264 -2.427338 1.672742
v 1.053781 -2.427338 1.672742
v -1.355063 -1.721539 -0.016211
v -1.355063 -4.836183 -0.016210
v -1.355063 -1.721539 -0.016211
v -0.596848 -2.479754 -1.723232
v -0.596848 -2.479754 -1.723232
v -0.519871 -2.556731 -2.014175
v 1.001365 -2.479754 -1.723231
v -0.596848 -4.077967 -1.723231
v 1.001364 -4.077967 -1.723232
v -0.519871 -4.000990 -2.014174
v 0.924388 -4.000990 -2.014175
v -0.456164 -3.937283 -2.479001
v 0.860681 -3.937283 -2.479002
v -0.422797 -3.903916 -2.993163
v -0.456164 -2.620439 -2.479002
v 0.860681 -2.620439 -2.479001
v -0.422797 -2.653805 -2.993163
v 0.827314 -2.653805 -2.993163
v -0.412407 -2.664196 -3.348867
v -0.414352 -2.662250 -3.783542
v 0.816924 -2.664196 -3.348867
v -0.412407 -3.893526 -3.348867
v 0.816924 -3.893526 -3.348867
v -0.414352 -3.895471 -3.783542
v 0.818869 -3.895471 -3.783542
v -0.441325 -3.922444 -4.229623
v 0.845842 -3.922445 -4.229623
v -0.486099 -3.967217 -4.567583
v -0.441325 -2.635276 -4.229623
v 0.845842 -2.635277 -4.229623
v -0.486099 -2.590503 -4.567583
v 0.890616 -2.590503 -4.567583
v -0.797742 -2.278861 -6.533724
v -0.797742 -4.278861 -6.533724
v 1.202258 -2.278861 -6.533724
v -0.540655 -2.601705 -6.772745
v -0.540655 -3.956017 -6.772745
v 0.945172 -2.601705 -6.772745
v 0.945172 -3.956017 -6.772745
v 1.202258 -4.278861 -6.533724
v 0.890616 -3.967218 -4.567583
v 0.818869 -2.662250 -3.783542
v 0.827314 -3.903916 -2.993163
v 0.924388 -2.556731 -2.014174
v 1.759580 -4.836183 -0.016211
v 1.759580 -1.721539 -0.016210
v 1.053781 -4.130383 1.672742
v 1.759580 -1.721539 -0.016210
v 1.001365 -2.479754 -1.723231
v 1.053781 -2.427338 1.672742
v 0.998037 -1.637735 -0.020995
v 0.536283 -1.807468 -0.406898
v 0.537612 -1.796940 0.361973
v 0.998037 -1.637735 -0.020995
v 0.536283 -1.807468 -0.406898
v 0.537612 -1.796940 0.361973
v 1.034421 -1.798613 -0.018891
v 0.429496 -1.907408 -0.405238
v 0.430638 -1.896564 0.363629
v 0.404733 16.214405 0.338821
v 0.537612 16.203049 0.338614
v 0.490308 16.840900 -0.047005
v 0.403392 16.203651 -0.430047
v 0.536283 16.192520 -0.430257
v 0.536284 16.192520 -0.430257
v 0.621549 16.812412 -0.046973
v 0.621549 16.812412 -0.046973
v 0.537612 16.203049 0.338614
v 0.229460 20.398705 -0.051627
v 0.175058 20.398705 -0.051627
v 0.216098 17.686611 -1.377193
v 0.230444 17.737755 1.249095
v 0.230444 15.737758 1.254286
v 0.174073 17.737755 1.249094
v 0.174073 15.737758 1.254285
v 0.174073 -2.262231 1.277645
v -0.133095 16.203049 0.338614
v -0.133094 16.203049 0.338614
v -0.217031 16.812412 -0.046973
v -0.133095 -1.796940 0.361973
v -0.133095 -1.796940 0.361973
v -0.593520 -1.637735 -0.020996
v -0.131766 -1.807468 -0.406898
v -0.593520 -1.637735 -0.020996
v -0.131766 -1.807468 -0.406898
v -0.629905 -1.798613 -0.018892
v -0.026121 -1.896564 0.363628
v -0.024979 -1.907408 -0.405239
v 0.001125 16.203651 -0.430048
v -0.131766 16.192520 -0.430257
v -0.085791 16.840900 -0.047006
v -0.000215 16.214405 0.338820
v -0.217031 16.812412 -0.046973
v -0.131766 16.192520 -0.430257
v 0.188419 15.686616 -1.372002
v 0.216098 15.686616 -1.372002
v 0.188419 -2.313372 -1.348643
v 0.188419 17.686611 -1.377193
v 0.216098 -2.313371 -1.348643
v 0.230444 -2.262231 1.277645
v 0.908800 -2.572320 2.437257
v 0.854705 -3.931308 3.327339
v 0.852096 -3.928699 3.759418
vn 1.0000 -0.0000 -0.0000
vn -0.6652 -0.0000 0.7466
vn -0.0000 -0.5787 0.8156
vn -0.0000 -0.0000 1.0000
vn 0.6652 -0.0000 0.7466
vn -0.0000 0.5787 0.8156
vn 0.9877 -0.0000 -0.1565
vn -0.0000 0.9877 -0.1565
vn -0.0000 0.9927 -0.1206
vn 0.9927 -0.0000 -0.1206
vn -0.0000 -0.9927 -0.1206
vn -0.0000 -0.9877 -0.1565
vn -0.9927 -0.0000 -0.1206
vn -0.9877 -0.0000 -0.1565
vn -0.0000 -0.9987 -0.0507
vn -0.9987 -0.0000 -0.0507
vn -0.0000 0.9987 -0.0507
vn -0.0000 1.0000 0.0060
vn -1.0000 -0.0000 0.0060
vn -0.0000 0.9992 0.0410
vn -0.9992 -0.0000 0.0410
vn -0.9972 -0.0000 0.0753
vn -0.0000 0.9972 0.0753
vn -0.0000 -0.9972 0.0753
vn -0.0000 -0.9992 0.0410
vn -0.0000 -0.9898 0.1425
vn -0.9898 -0.0000 0.1425
vn -0.0000 -0.9676 0.2526
vn -0.9676 -0.0000 0.2526
vn -0.0000 0.9898 0.1425
vn -0.0000 0.9676 0.2526
vn -0.9227 -0.0000 0.3856
vn -0.9139 -0.0000 -0.4059
vn -0.9667 -0.0000 -0.2558
vn -0.0000 0.9667 -0.2558
vn -0.0000 -0.9667 -0.2558
vn -0.0000 -0.9139 -0.4059
vn -0.0000 -0.9907 -0.1358
vn -0.9907 -0.0000 -0.1358
vn -0.0000 -0.9979 -0.0648
vn -0.9979 -0.0000 -0.0648
vn -0.0000 0.9907 -0.1358
vn -0.0000 0.9979 -0.0648
vn -0.0000 0.9996 -0.0292
vn -0.9996 -0.0000 -0.0292
vn -1.0000 -0.0000 0.0045
vn -0.0000 1.0000 0.0045
vn -0.0000 -1.0000 0.0045
vn -0.0000 -0.9996 -0.0292
vn -0.0000 -0.9982 0.0604
vn -0.9982 -0.0000 0.0604
vn -0.0000 -0.9913 0.1313
vn -0.9913 -0.0000 0.1313
vn -0.0000 0.9982 0.0604
vn -0.0000 0.9913 0.1313
vn -0.0000 0.9877 0.1566
vn -0.9877 -0.0000 0.1566
vn -0.6809 -0.0000 -0.7324
vn -0.0000 0.5950 -0.8037
vn -0.0000 -0.0000 -1.0000
vn 0.6809 -0.0000 -0.7324
vn -0.0000 -0.5950 -0.8037
vn -0.0000 -0.9877 0.1566
vn 0.9877 -0.0000 0.1566
vn 0.9913 -0.0000 0.1313
vn 0.9982 -0.0000 0.0604
vn 1.0000 -0.0000 0.0045
vn 0.9996 -0.0000 -0.0292
vn 0.9979 -0.0000 -0.0648
vn 0.9907 -0.0000 -0.1358
vn 0.9667 -0.0000 -0.2558
vn 0.9139 -0.0000 -0.4059
vn -0.0000 -0.9227 0.3856
vn 0.9227 -0.0000 0.3856
vn 0.9676 -0.0000 0.2526
vn 0.0454 0.8924 -0.4490
vn 0.0421 0.9032 0.4272
vn -0.0000 0.0624 0.9981
vn -0.6069 0.1750 0.7752
vn -0.6011 0.1515 -0.7847
vn -0.1685 0.9856 -0.0137
vn -0.0073 -0.0013 -1.0000
vn 1.0000 0.0014 -0.0016
vn -0.0790 -0.5200 -0.8505
vn 0.9908 -0.1352 0.0002
vn -0.0761 -0.5114 0.8560
vn 0.0073 0.0013 1.0000
vn -0.0000 0.0012 1.0000
vn -0.0000 -1.0000 -0.0000
vn 0.9658 0.0701 0.2495
vn 0.9641 0.0691 -0.2564
vn -0.0000 0.4392 0.8984
vn -0.0000 0.4391 -0.8984
vn -0.0000 0.0026 1.0000
vn -0.9658 0.0701 0.2495
vn -0.0000 0.0013 1.0000
vn -0.9480 0.0004 0.3182
vn -0.0000 -0.0013 -1.0000
vn -0.0000 1.0000 -0.0000
vn -0.0421 0.9032 0.4272
vn -0.0000 0.0312 -0.9995
vn -0.0454 0.8924 -0.4490
vn 0.6011 0.1515 -0.7847
vn 0.6069 0.1750 0.7752
vn 0.1685 0.9856 -0.0137
vn -1.0000 0.0014 -0.0016
vn -0.0073 0.0013 1.0000
vn 0.0761 -0.5114 0.8560
vn -0.9908 -0.1352 0.0002
vn 0.0790 -0.5200 -0.8505
vn 0.0073 -0.0013 -1.0000
vn -0.9641 0.0691 -0.2564
vn -0.9468 -0.0004 -0.3217
vn -0.0000 -0.0026 -1.0000
vn -0.0000 0.9139 -0.4059
vn 0.9468 -0.0004 -0.3217
vn -0.0000 0.9227 0.3856
vn 0.9480 0.0004 0.3182
vn -0.0000 -0.0012 -1.0000
vn 0.9898 -0.0000 0.1425
vn 0.9972 -0.0000 0.0753
vn 0.9992 -0.0000 0.0410
vn 1.0000 -0.0000 0.0060
vn -0.0000 -1.0000 0.0060
vn 0.9987 -0.0000 -0.0507
vt 0.574610 0.959874
vt 0.425390 0.959874
vt 0.625000 1.000000
vt 0.375000 1.000000
vt 0.425390 0.790126
vt 0.375000 0.750000
vt 0.574610 0.790126
vt 0.625000 0.750000
vt 0.375000 0.718530
vt 0.625000 0.718530
vt 0.875000 0.718530
vt 0.875000 0.750000
vt 0.625000 0.712804
vt 0.876379 0.712804
vt 0.375000 0.712804
vt 0.125000 0.718530
vt 0.123621 0.712804
vt 0.125000 0.750000
vt 0.626379 0.037196
vt 0.373621 0.037196
vt 0.375000 0.031470
vt 0.625000 0.031470
vt 0.375000 0.000000
vt 0.625000 0.000000
vt 0.122267 0.701782
vt 0.375000 0.701782
vt 0.627733 0.048218
vt 0.372267 0.048218
vt 0.625000 0.701782
vt 0.877733 0.701782
vt 0.625000 0.693390
vt 0.875000 0.693390
vt 0.625000 0.056610
vt 0.375000 0.056610
vt 0.625000 0.685609
vt 0.875000 0.685609
vt 0.625000 0.064391
vt 0.375000 0.064391
vt 0.628077 0.075334
vt 0.371922 0.075334
vt 0.625000 0.674665
vt 0.878078 0.674666
vt 0.375000 0.685609
vt 0.125000 0.685609
vt 0.121923 0.674665
vt 0.375000 0.674666
vt 0.375000 0.693390
vt 0.125000 0.693390
vt 0.124377 0.663660
vt 0.375000 0.663660
vt 0.625623 0.086340
vt 0.374377 0.086340
vt 0.125000 0.659546
vt 0.375000 0.659546
vt 0.625000 0.090454
vt 0.375000 0.090454
vt 0.625000 0.663660
vt 0.875623 0.663660
vt 0.625000 0.659546
vt 0.875000 0.659546
vt 0.625000 0.125000
vt 0.375000 0.125000
vt 0.625000 0.159916
vt 0.375000 0.159916
vt 0.625000 0.590084
vt 0.875000 0.590084
vt 0.625646 0.163748
vt 0.374354 0.163748
vt 0.625000 0.586252
vt 0.875646 0.586252
vt 0.375000 0.590084
vt 0.125000 0.590084
vt 0.124354 0.586252
vt 0.375000 0.586252
vt 0.375000 0.625000
vt 0.125000 0.625000
vt 0.121452 0.575022
vt 0.375000 0.575022
vt 0.628548 0.174978
vt 0.371452 0.174978
vt 0.125000 0.564109
vt 0.375000 0.564109
vt 0.625000 0.185891
vt 0.375000 0.185891
vt 0.625000 0.575022
vt 0.878548 0.575022
vt 0.625000 0.564109
vt 0.875000 0.564109
vt 0.625000 0.556833
vt 0.875000 0.556833
vt 0.625000 0.193167
vt 0.375000 0.193167
vt 0.627898 0.201741
vt 0.372102 0.201741
vt 0.625000 0.548259
vt 0.877898 0.548259
vt 0.375000 0.556833
vt 0.125000 0.556833
vt 0.122102 0.548259
vt 0.375000 0.548259
vt 0.123683 0.537424
vt 0.375000 0.537424
vt 0.626317 0.212576
vt 0.373683 0.212576
vt 0.125000 0.531905
vt 0.375000 0.531905
vt 0.625000 0.218095
vt 0.375000 0.218095
vt 0.625000 0.537424
vt 0.876317 0.537424
vt 0.625000 0.531905
vt 0.875000 0.531905
vt 0.625000 0.500000
vt 0.875000 0.500000
vt 0.625000 0.250000
vt 0.375000 0.250000
vt 0.584644 0.282136
vt 0.415356 0.282136
vt 0.584644 0.467864
vt 0.415356 0.467864
vt 0.375000 0.500000
vt 0.125000 0.500000
vt 0.625000 0.625000
vt 0.651085 0.597746
vt 0.644625 0.613469
vt 0.636842 0.621430
vt 0.644388 0.629228
vt 0.650083 0.651465
vt 0.640163 0.624332
vt 0.641993 0.619878
vt 0.640328 0.613378
vt 0.644625 0.613469
vt 0.858007 0.619878
vt 0.849917 0.651465
vt 0.848915 0.597746
vt 0.855612 0.629228
vt 0.855612 0.629228
vt 0.863158 0.621430
vt 0.863158 0.621430
vt 0.875000 0.625000
vt 0.855375 0.613469
vt 0.855375 0.613469
vt 0.859672 0.613378
vt 0.859837 0.624332
vt 0.855375 0.613469
s 0
usemtl Material.001
f 482/483/227 481/484/227 485/484/227 486/483/227
f 481/484/228 482/483/228 492/485/228 484/486/228
f 483/487/229 481/484/229 484/486/229 491/488/229
f 481/484/227 483/487/227 487/487/227 485/484/227
f 487/487/230 488/489/230 486/483/230 485/484/230
f 483/487/227 489/489/227 488/489/227 487/487/227
f 489/489/227 482/483/227 486/483/227 488/489/227
f 489/489/231 483/487/231 491/488/231 490/490/231
f 482/483/232 489/489/232 490/490/232 492/485/232
f 496/491/233 493/492/233 490/490/233 491/488/233
f 493/492/234 494/493/234 492/494/234 490/490/234
f 494/493/235 493/492/235 495/495/235 501/496/235
f 493/492/236 496/491/236 497/497/236 495/495/236
f 496/491/237 498/498/237 499/499/237 497/497/237
f 498/498/238 496/491/238 491/488/238 484/500/238
f 501/501/239 499/502/239 498/503/239 494/504/239
f 484/505/240 492/506/240 494/504/240 498/503/240
f 497/497/241 499/499/241 500/507/241 624/508/241
f 502/509/242 500/510/242 499/502/242 501/501/242
f 501/496/243 495/495/243 503/511/243 502/512/243
f 502/512/244 503/511/244 505/513/244 504/514/244
f 504/515/245 506/516/245 500/510/245 502/509/245
f 509/517/246 507/518/246 504/514/246 505/513/246
f 506/516/247 504/515/247 507/519/247 510/520/247
f 508/521/248 512/522/248 510/520/248 507/519/248
f 507/518/249 509/517/249 622/523/249 508/524/249
f 511/525/250 510/526/250 512/527/250 513/528/250
f 510/526/251 511/525/251 623/529/251 506/530/251
f 513/528/252 512/527/252 514/531/252 515/532/252
f 517/533/253 514/534/253 512/522/253 508/521/253
f 515/532/254 514/531/254 516/535/254 568/536/254
f 519/537/255 516/538/255 514/534/255 517/533/255
f 508/524/256 622/523/256 518/539/256 517/540/256
f 517/540/257 518/539/257 521/541/257 519/542/257
f 522/543/227 519/537/227 520/537/227 524/543/227
f 519/542/227 521/541/227 571/541/227 520/542/227
f 516/538/258 519/537/258 522/543/258 523/544/258
f 523/544/259 522/543/259 525/545/259 529/546/259
f 525/545/227 522/543/227 524/543/227 526/545/227
f 528/547/227 525/548/227 526/548/227 570/547/227
f 527/549/260 531/550/260 529/546/260 525/545/260
f 525/548/261 528/547/261 565/551/261 527/552/261
f 530/553/262 529/554/262 531/555/262 532/556/262
f 529/554/263 530/553/263 566/557/263 523/558/263
f 532/556/264 531/555/264 533/559/264 534/560/264
f 536/561/265 533/562/265 531/550/265 527/549/265
f 534/560/266 533/559/266 535/563/266 564/564/266
f 538/565/267 535/566/267 533/562/267 536/561/267
f 527/552/268 565/551/268 537/567/268 536/568/268
f 536/568/269 537/567/269 539/569/269 538/570/269
f 542/571/270 540/572/270 538/570/270 539/569/270
f 535/566/271 538/565/271 540/573/271 543/574/271
f 541/575/272 545/576/272 543/574/272 540/573/272
f 540/572/273 542/571/273 563/577/273 541/578/273
f 544/579/274 543/580/274 545/581/274 546/582/274
f 543/580/275 544/579/275 564/564/275 535/563/275
f 546/582/276 545/581/276 547/583/276 548/584/276
f 550/585/277 547/586/277 545/576/277 541/575/277
f 548/584/278 547/583/278 549/587/278 562/588/278
f 552/589/279 549/590/279 547/586/279 550/585/279
f 541/578/280 563/577/280 551/591/280 550/592/280
f 550/592/281 551/591/281 553/593/281 552/594/281
f 556/595/282 554/596/282 552/594/282 553/593/282
f 549/590/283 552/589/283 554/597/283 555/598/283
f 557/599/284 558/600/284 555/598/284 554/597/284
f 559/601/285 557/599/285 554/597/285 556/595/285
f 558/600/286 557/599/286 559/601/286 560/602/286
f 560/602/287 559/601/287 556/595/287 561/603/287
f 558/600/288 560/602/288 561/603/288 555/598/288
f 555/604/289 561/603/289 562/588/289 549/587/289
f 561/603/290 556/595/290 553/593/290 562/588/290
f 551/591/291 548/584/291 562/588/291 553/593/291
f 563/577/292 546/582/292 548/584/292 551/591/292
f 542/571/293 544/579/293 546/582/293 563/577/293
f 544/579/294 542/571/294 539/569/294 564/564/294
f 537/567/295 534/560/295 564/564/295 539/569/295
f 565/551/296 532/556/296 534/560/296 537/567/296
f 528/547/297 530/553/297 532/556/297 565/551/297
f 530/553/298 528/547/298 567/605/298 566/557/298
f 523/558/299 566/557/299 568/536/299 516/535/299
f 566/557/300 567/605/300 521/541/300 568/536/300
f 518/539/301 515/532/301 568/536/301 521/541/301
f 521/541/227 567/605/227 569/605/227 571/541/227
f 567/605/227 528/547/227 570/547/227 569/605/227
f 620/606/302 573/607/302 572/608/302 569/605/302 570/547/302
f 572/608/303 574/609/303 621/610/303 571/541/303 569/605/303
f 572/608/227 573/607/227 576/607/227 575/608/227
f 574/609/304 572/608/304 575/608/304 577/609/304
f 575/608/305 576/607/305 579/607/305 578/608/305
f 577/609/306 575/608/306 578/608/306 580/609/306
f 579/607/307 580/611/307 578/608/307
f 582/609/308 577/609/308 580/609/308 581/609/308
f 581/609/309 580/609/309 579/607/309 584/607/309
f 587/612/310 582/609/310 581/609/310 583/612/310
f 581/609/311 584/613/311 583/612/311
f 585/614/312 587/612/312 583/612/312 584/607/312
f 576/607/313 585/614/313 584/607/313 579/607/313
f 573/607/314 586/614/314 585/614/314 576/607/314
f 586/614/315 588/612/315 587/612/315 585/614/315
f 588/612/315 589/609/315 582/609/315 587/612/315
f 594/610/316 589/609/316 588/612/316 590/612/316 593/610/316
f 588/612/317 586/614/317 617/606/317 592/606/317 590/612/317
f 590/612/318 591/615/318 595/616/318 593/610/318
f 592/606/319 619/617/319 591/615/319 590/612/319
f 596/616/320 594/610/320 593/610/320 595/616/320
f 600/615/321 598/618/321 596/616/321 595/616/321 591/615/321
f 597/616/322 621/610/322 594/610/322 596/616/322
f 601/619/323 597/616/323 596/616/323 598/618/323
f 598/618/315 600/615/315 614/615/315 599/618/315
f 601/619/324 598/618/324 599/618/324 602/619/324
f 603/620/325 601/619/325 602/619/325 605/621/325
f 597/616/326 601/619/326 603/620/326 524/622/326 520/542/326
f 604/623/327 603/620/327 605/621/327 606/624/327
f 603/620/328 604/623/328 618/617/328 526/548/328 524/622/328
f 605/621/329 602/619/329 608/619/329 607/620/329
f 606/624/330 605/621/330 607/620/330 609/624/330
f 608/619/331 609/625/331 607/620/331
f 610/624/332 609/624/332 608/619/332 613/618/332
f 611/624/333 606/624/333 609/624/333 610/624/333
f 614/615/334 611/624/334 610/624/334 612/615/334
f 610/624/335 613/626/335 612/615/335
f 599/618/336 614/615/336 612/615/336 613/618/336
f 602/619/337 599/618/337 613/618/337 608/619/337
f 600/615/315 615/627/315 611/624/315 614/615/315
f 615/627/322 604/623/322 606/624/322 611/624/322
f 616/617/338 615/627/338 600/615/338 591/615/338 619/617/338
f 618/617/339 604/623/339 615/627/339 616/617/339
f 617/606/340 616/617/340 619/617/340 592/606/340
f 620/606/324 618/617/324 616/617/324 617/606/324
f 618/617/341 620/606/341 570/547/341 526/548/341
f 573/607/342 620/606/342 617/606/342 586/614/342
f 621/610/343 597/616/343 520/542/343 571/541/343
f 621/610/344 574/609/344 589/609/344 594/610/344
f 589/609/345 574/609/345 577/609/345 582/609/345
f 622/523/346 513/528/346 515/532/346 518/539/346
f 509/517/347 511/525/347 513/528/347 622/523/347
f 511/525/348 509/517/348 505/513/348 623/529/348
f 503/511/349 624/508/349 623/529/349 505/513/349
f 624/508/350 500/507/350 506/530/350 623/529/350
f 495/495/351 497/497/351 624/508/351 503/511/351
o Cylinder.003
v 0.202258 -12.476282 -0.720654
v 0.339689 -12.476282 -0.707119
v 0.064828 -12.476282 -0.707119
v 0.202258 -10.940466 -1.035051
v 0.202258 -9.274124 -1.211001
v 0.007168 -10.940466 -1.015475
v 0.397349 -10.940466 -1.015475
v 0.395939 -9.274124 -1.188044
v 0.584942 -10.940466 -0.957497
v 0.471838 -12.476282 -0.667032
v 0.582176 -9.274124 -1.120053
v 0.757829 -10.940466 -0.863346
v 0.593627 -12.476282 -0.601934
v 0.753813 -9.274123 -1.009643
v 0.909365 -10.940466 -0.736640
v 0.700376 -12.476282 -0.514327
v 0.904254 -9.274123 -0.861055
v 1.033728 -10.940466 -0.582248
v 0.787982 -12.476282 -0.407578
v 1.027718 -9.274123 -0.680001
v 1.126138 -10.940466 -0.406104
v 0.853080 -12.476282 -0.285789
v 1.119460 -9.274123 -0.473437
v 1.183044 -10.940466 -0.214976
v 0.893167 -12.476282 -0.153640
v 1.175955 -9.274123 -0.249302
v 1.202258 -10.940466 -0.016210
v 0.906702 -12.476282 -0.016210
v 1.195031 -9.274123 -0.016210
v 1.183044 -10.940466 0.182556
v 0.893167 -12.476282 0.121220
v 1.175955 -9.274123 0.216882
v 1.126138 -10.940466 0.373683
v 0.853080 -12.476282 0.253369
v 1.119460 -9.274123 0.441016
v 1.033728 -10.940466 0.549828
v 0.787982 -12.476282 0.375158
v 1.027718 -9.274123 0.647580
v 0.909365 -10.940466 0.704219
v 0.700376 -12.476282 0.481907
v 0.904254 -9.274123 0.828635
v 0.757829 -10.940466 0.830925
v 0.593627 -12.476282 0.569514
v 0.753813 -9.274123 0.977222
v 0.584942 -10.940466 0.925076
v 0.471838 -12.476282 0.634611
v 0.582176 -9.274124 1.087633
v 0.397349 -10.940466 0.983054
v 0.339689 -12.476282 0.674698
v 0.395939 -9.274124 1.155623
v 0.202258 -10.940466 1.002631
v 0.202258 -12.476282 0.688234
v 0.202258 -9.274124 1.178581
v 0.007168 -10.940466 0.983054
v 0.064828 -12.476282 0.674698
v 0.008578 -9.274124 1.155623
v -0.180425 -10.940466 0.925076
v -0.067321 -12.476282 0.634611
v -0.177659 -9.274124 1.087633
v -0.353312 -10.940466 0.830925
v -0.189110 -12.476282 0.569514
v -0.349296 -9.274124 0.977222
v -0.504848 -10.940466 0.704219
v -0.295859 -12.476282 0.481907
v -0.499738 -9.274124 0.828635
v -0.629211 -10.940466 0.549828
v -0.383465 -12.476282 0.375158
v -0.623202 -9.274124 0.647580
v -0.721621 -10.940466 0.373683
v -0.448563 -12.476282 0.253369
v -0.714944 -9.274124 0.441016
v -0.778527 -10.940466 0.182556
v -0.488650 -12.476282 0.121220
v -0.771438 -9.274124 0.216882
v -0.797742 -10.940466 -0.016210
v -0.502186 -12.476282 -0.016210
v -0.790514 -9.274124 -0.016210
v -0.778527 -10.940466 -0.214976
v -0.488650 -12.476282 -0.153640
v -0.771438 -9.274124 -0.249302
v -0.721621 -10.940466 -0.406104
v -0.448563 -12.476282 -0.285789
v -0.714944 -9.274124 -0.473437
v -0.629211 -10.940466 -0.582248
v -0.383465 -12.476282 -0.407578
v -0.623202 -9.274124 -0.680001
v -0.504848 -10.940466 -0.736640
v -0.295859 -12.476282 -0.514327
v -0.499738 -9.274124 -0.861055
v -0.353312 -10.940466 -0.863346
v -0.189110 -12.476282 -0.601934
v -0.349296 -9.274124 -1.009643
v -0.180425 -10.940466 -0.957497
v -0.067321 -12.476282 -0.667032
v -0.177659 -9.274124 -1.120053
v -0.177659 -7.418609 -1.120053
v 0.008578 -9.274124 -1.188044
v 0.008578 -7.418609 -1.188044
v 0.025966 -5.959440 -0.967302
v 0.202258 -7.418608 -1.211001
v 0.202258 -5.959440 -0.985935
v 0.395939 -7.418609 -1.188044
v 0.378551 -5.959440 -0.967302
v 0.582176 -7.418609 -1.120053
v 0.548069 -5.959440 -0.912119
v 0.753813 -7.418609 -1.009643
v 0.704297 -5.959440 -0.822507
v 0.904254 -7.418609 -0.861055
v 0.841232 -5.959440 -0.701909
v 1.027718 -7.418609 -0.680001
v 0.953612 -5.959440 -0.554960
v 1.119460 -7.418609 -0.473437
v 1.037118 -5.959440 -0.387308
v 1.175955 -7.418609 -0.249302
v 1.088541 -5.959440 -0.205394
v 1.195031 -7.418609 -0.016210
v 1.105904 -5.959440 -0.016210
v 1.175955 -7.418609 0.216882
v 1.088541 -5.959440 0.172974
v 1.119460 -7.418609 0.441016
v 1.037118 -5.959440 0.354887
v 1.027718 -7.418609 0.647580
v 0.953612 -5.959440 0.522540
v 0.904254 -7.418609 0.828635
v 0.841232 -5.959440 0.669488
v 0.753813 -7.418609 0.977222
v 0.704297 -5.959440 0.790086
v 0.582176 -7.418609 1.087633
v 0.548069 -5.959440 0.879698
v 0.395939 -7.418609 1.155623
v 0.378551 -5.959440 0.934881
v 0.202258 -7.418609 1.178581
v 0.202258 -5.959440 0.953514
v 0.008578 -7.418609 1.155623
v 0.025966 -5.959440 0.934881
v -0.177659 -7.418609 1.087633
v -0.143552 -5.959440 0.879698
v -0.349296 -7.418609 0.977222
v -0.299780 -5.959440 0.790086
v -0.499738 -7.418609 0.828635
v -0.436715 -5.959440 0.669488
v -0.623201 -7.418609 0.647580
v -0.549095 -5.959440 0.522540
v -0.714944 -7.418609 0.441016
v -0.632601 -5.959440 0.354887
v -0.771438 -7.418609 0.216882
v -0.684024 -5.959440 0.172974
v -0.790514 -7.418609 -0.016210
v -0.701387 -5.959440 -0.016210
v -0.771438 -7.418609 -0.249302
v -0.684024 -5.959440 -0.205394
v -0.714944 -7.418609 -0.473437
v -0.632601 -5.959440 -0.387308
v -0.623201 -7.418609 -0.680001
v -0.549095 -5.959440 -0.554960
v -0.499738 -7.418609 -0.861055
v -0.436715 -5.959440 -0.701909
v -0.349296 -7.418609 -1.009643
v -0.299780 -5.959440 -0.822507
v -0.225163 -4.174572 -0.655892
v -0.143552 -5.959440 -0.912119
v -0.092155 -4.174572 -0.726987
v 0.052168 -4.174572 -0.770767
v 0.202258 -4.174572 -0.785550
v 0.352349 -4.174572 -0.770767
v 0.496672 -4.174572 -0.726987
v 0.629680 -4.174572 -0.655892
v 0.746263 -4.174572 -0.560215
v 0.841940 -4.174572 -0.443632
v 0.913035 -4.174572 -0.310624
v 0.956815 -4.174572 -0.166301
v 0.971598 -4.174572 -0.016210
v 0.956815 -4.174572 0.133880
v 0.913035 -4.174572 0.278203
v 0.841940 -4.174572 0.411212
v 0.746263 -4.174572 0.527795
v 0.629680 -4.174572 0.623472
v 0.496672 -4.174572 0.694566
v 0.352349 -4.174572 0.738346
v 0.202258 -4.174572 0.753129
v 0.052168 -4.174572 0.738346
v -0.092155 -4.174572 0.694566
v -0.225163 -4.174572 0.623472
v -0.341747 -4.174572 0.527795
v -0.437424 -4.174572 0.411212
v -0.508518 -4.174572 0.278203
v -0.552298 -4.174572 0.133880
v -0.567081 -4.174572 -0.016210
v -0.552298 -4.174572 -0.166301
v -0.508518 -4.174572 -0.310624
v -0.437424 -4.174572 -0.443632
v -0.341747 -4.174572 -0.560215
vn 0.0971 -0.1995 -0.9751
vn -0.0000 -1.0000 -0.0000
vn -0.0971 -0.1995 -0.9751
vn 0.1082 -0.1034 -0.9887
vn -0.1082 -0.1034 -0.9887
vn 0.2874 -0.1986 -0.9370
vn 0.3179 -0.0945 -0.9434
vn 0.4661 -0.1970 -0.8625
vn 0.5090 -0.0784 -0.8572
vn 0.6263 -0.1950 -0.7548
vn 0.6726 -0.0581 -0.7378
vn 0.7619 -0.1927 -0.6184
vn 0.8038 -0.0369 -0.5938
vn 0.8678 -0.1906 -0.4588
vn 0.9010 -0.0180 -0.4335
vn 0.9405 -0.1891 -0.2822
vn 0.9647 -0.0041 -0.2634
vn 0.9775 -0.1882 -0.0952
vn 0.9961 0.0034 -0.0883
vn 0.9775 -0.1882 0.0952
vn 0.9961 0.0034 0.0883
vn 0.9405 -0.1891 0.2822
vn 0.9647 -0.0041 0.2634
vn 0.8678 -0.1906 0.4588
vn 0.9010 -0.0180 0.4335
vn 0.7619 -0.1927 0.6184
vn 0.8038 -0.0369 0.5938
vn 0.6263 -0.1950 0.7548
vn 0.6726 -0.0581 0.7378
vn 0.4661 -0.1970 0.8625
vn 0.5090 -0.0784 0.8572
vn 0.2874 -0.1986 0.9370
vn 0.3179 -0.0945 0.9434
vn 0.0971 -0.1995 0.9751
vn 0.1082 -0.1034 0.9887
vn -0.0971 -0.1995 0.9751
vn -0.1082 -0.1034 0.9887
vn -0.2874 -0.1986 0.9370
vn -0.3179 -0.0945 0.9434
vn -0.4661 -0.1970 0.8625
vn -0.5090 -0.0784 0.8572
vn -0.6263 -0.1950 0.7548
vn -0.6726 -0.0581 0.7378
vn -0.7619 -0.1927 0.6184
vn -0.8038 -0.0369 0.5938
vn -0.8678 -0.1906 0.4588
vn -0.9010 -0.0180 0.4335
vn -0.9405 -0.1891 0.2822
vn -0.9647 -0.0041 0.2634
vn -0.9775 -0.1882 0.0952
vn -0.9961 0.0034 0.0883
vn -0.9775 -0.1882 -0.0952
vn -0.9961 0.0034 -0.0883
vn -0.9405 -0.1891 -0.2822
vn -0.9647 -0.0041 -0.2634
vn -0.8678 -0.1906 -0.4588
vn -0.9010 -0.0180 -0.4335
vn -0.7619 -0.1927 -0.6184
vn -0.8038 -0.0369 -0.5938
vn -0.6263 -0.1950 -0.7548
vn -0.6726 -0.0581 -0.7378
vn -0.4661 -0.1970 -0.8625
vn -0.5090 -0.0784 -0.8572
vn -0.2874 -0.1986 -0.9370
vn -0.3179 -0.0945 -0.9434
vn -0.5410 -0.0000 -0.8410
vn -0.3429 -0.0000 -0.9394
vn -0.1177 -0.0000 -0.9930
vn -0.3238 0.1431 -0.9352
vn -0.1104 0.1507 -0.9824
vn 0.1177 -0.0000 -0.9930
vn 0.1104 0.1507 -0.9824
vn 0.3238 0.1431 -0.9352
vn 0.3429 -0.0000 -0.9394
vn 0.5164 0.1294 -0.8465
vn 0.5410 -0.0000 -0.8410
vn 0.6793 0.1122 -0.7252
vn 0.7027 -0.0000 -0.7115
vn 0.8083 0.0946 -0.5812
vn 0.8262 -0.0000 -0.5634
vn 0.9028 0.0790 -0.4228
vn 0.9139 -0.0000 -0.4059
vn 0.9642 0.0675 -0.2563
vn 0.9697 -0.0000 -0.2444
vn 0.9944 0.0614 -0.0858
vn 0.9967 -0.0000 -0.0816
vn 0.9944 0.0614 0.0858
vn 0.9967 -0.0000 0.0816
vn 0.9642 0.0675 0.2563
vn 0.9697 -0.0000 0.2444
vn 0.9028 0.0790 0.4228
vn 0.9139 -0.0000 0.4059
vn 0.8083 0.0946 0.5812
vn 0.8262 -0.0000 0.5634
vn 0.6793 0.1122 0.7252
vn 0.7027 -0.0000 0.7115
vn 0.5164 0.1294 0.8465
vn 0.5410 -0.0000 0.8410
vn 0.3238 0.1431 0.9352
vn 0.3429 -0.0000 0.9394
vn 0.1104 0.1507 0.9824
vn 0.1177 -0.0000 0.9930
vn -0.1104 0.1507 0.9824
vn -0.1177 -0.0000 0.9930
vn -0.3238 0.1431 0.9352
vn -0.3429 -0.0000 0.9394
vn -0.5164 0.1294 0.8465
vn -0.5410 -0.0000 0.8410
vn -0.6793 0.1122 0.7252
vn -0.7027 -0.0000 0.7115
vn -0.8083 0.0946 0.5812
vn -0.8262 -0.0000 0.5634
vn -0.9028 0.0790 0.4228
vn -0.9139 -0.0000 0.4059
vn -0.9642 0.0675 0.2563
vn -0.9697 -0.0000 0.2444
vn -0.9944 0.0614 0.0858
vn -0.9967 -0.0000 0.0816
vn -0.9944 0.0614 -0.0858
vn -0.9967 -0.0000 -0.0816
vn -0.9642 0.0675 -0.2563
vn -0.9697 -0.0000 -0.2444
vn -0.9028 0.0790 -0.4228
vn -0.9139 -0.0000 -0.4059
vn -0.8083 0.0946 -0.5812
vn -0.8262 -0.0000 -0.5634
vn -0.6793 0.1122 -0.7252
vn -0.7027 -0.0000 -0.7115
vn -0.5164 0.1294 -0.8465
vn -0.4831 0.1027 -0.8695
vn -0.6460 0.0961 -0.7573
vn -0.2990 0.1079 -0.9481
vn -0.0000 1.0000 -0.0000
vn -0.1012 0.1107 -0.9887
vn 0.1012 0.1107 -0.9887
vn 0.2990 0.1079 -0.9481
vn 0.4831 0.1027 -0.8695
vn 0.6460 0.0961 -0.7573
vn 0.7818 0.0890 -0.6172
vn 0.8863 0.0825 -0.4557
vn 0.9571 0.0776 -0.2793
vn 0.9927 0.0750 -0.0941
vn 0.9927 0.0750 0.0941
vn 0.9571 0.0776 0.2793
vn 0.8863 0.0825 0.4557
vn 0.7818 0.0890 0.6172
vn 0.6460 0.0961 0.7573
vn 0.4831 0.1027 0.8695
vn 0.2990 0.1079 0.9481
vn 0.1012 0.1107 0.9887
vn -0.1012 0.1107 0.9887
vn -0.2990 0.1079 0.9481
vn -0.4831 0.1027 0.8695
vn -0.6460 0.0961 0.7573
vn -0.7818 0.0890 0.6172
vn -0.8863 0.0825 0.4557
vn -0.9571 0.0776 0.2793
vn -0.9927 0.0750 0.0941
vn -0.9927 0.0750 -0.0941
vn -0.9571 0.0776 -0.2793
vn -0.8863 0.0825 -0.4557
vn -0.7818 0.0890 -0.6172
vt 1.000000 0.500000
vt 1.000000 0.592500
vt 0.968750 0.592500
vt 0.968750 0.500000
vt 0.750000 0.490000
vt 0.796822 0.485388
vt 0.841844 0.471731
vt 0.883337 0.449553
vt 0.919706 0.419706
vt 0.949553 0.383337
vt 0.971731 0.341844
vt 0.985388 0.296822
vt 0.990000 0.250000
vt 0.985388 0.203178
vt 0.971731 0.158156
vt 0.949553 0.116663
vt 0.919706 0.080294
vt 0.883337 0.050447
vt 0.841844 0.028269
vt 0.796822 0.014612
vt 0.750000 0.010000
vt 0.703178 0.014612
vt 0.658156 0.028269
vt 0.616663 0.050447
vt 0.580294 0.080294
vt 0.550447 0.116663
vt 0.528269 0.158156
vt 0.514612 0.203178
vt 0.510000 0.250000
vt 0.514612 0.296822
vt 0.528269 0.341844
vt 0.550447 0.383337
vt 0.580294 0.419706
vt 0.616663 0.449553
vt 0.658156 0.471731
vt 0.703178 0.485388
vt 0.031250 0.500000
vt 0.031250 0.592500
vt 0.000000 0.592500
vt 0.000000 0.500000
vt 1.000000 0.692500
vt 0.968750 0.692500
vt 0.031250 0.692500
vt 0.000000 0.692500
vt 0.937500 0.592500
vt 0.937500 0.500000
vt 0.937500 0.692500
vt 0.906250 0.592500
vt 0.906250 0.500000
vt 0.906250 0.692500
vt 0.875000 0.592500
vt 0.875000 0.500000
vt 0.875000 0.692500
vt 0.843750 0.592500
vt 0.843750 0.500000
vt 0.843750 0.692500
vt 0.812500 0.592500
vt 0.812500 0.500000
vt 0.812500 0.692500
vt 0.781250 0.592500
vt 0.781250 0.500000
vt 0.781250 0.692500
vt 0.750000 0.592500
vt 0.750000 0.500000
vt 0.750000 0.692500
vt 0.718750 0.592500
vt 0.718750 0.500000
vt 0.718750 0.692500
vt 0.687500 0.592500
vt 0.687500 0.500000
vt 0.687500 0.692500
vt 0.656250 0.592500
vt 0.656250 0.500000
vt 0.656250 0.692500
vt 0.625000 0.592500
vt 0.625000 0.500000
vt 0.625000 0.692500
vt 0.593750 0.592500
vt 0.593750 0.500000
vt 0.593750 0.692500
vt 0.562500 0.592500
vt 0.562500 0.500000
vt 0.562500 0.692500
vt 0.531250 0.592500
vt 0.531250 0.500000
vt 0.531250 0.692500
vt 0.500000 0.592500
vt 0.500000 0.500000
vt 0.500000 0.692500
vt 0.468750 0.592500
vt 0.468750 0.500000
vt 0.468750 0.692500
vt 0.437500 0.592500
vt 0.437500 0.500000
vt 0.437500 0.692500
vt 0.406250 0.592500
vt 0.406250 0.500000
vt 0.406250 0.692500
vt 0.375000 0.592500
vt 0.375000 0.500000
vt 0.375000 0.692500
vt 0.343750 0.592500
vt 0.343750 0.500000
vt 0.343750 0.692500
vt 0.312500 0.592500
vt 0.312500 0.500000
vt 0.312500 0.692500
vt 0.281250 0.592500
vt 0.281250 0.500000
vt 0.281250 0.692500
vt 0.250000 0.592500
vt 0.250000 0.500000
vt 0.250000 0.692500
vt 0.218750 0.592500
vt 0.218750 0.500000
vt 0.218750 0.692500
vt 0.187500 0.592500
vt 0.187500 0.500000
vt 0.187500 0.692500
vt 0.156250 0.592500
vt 0.156250 0.500000
vt 0.156250 0.692500
vt 0.125000 0.592500
vt 0.125000 0.500000
vt 0.125000 0.692500
vt 0.093750 0.592500
vt 0.093750 0.500000
vt 0.093750 0.692500
vt 0.062500 0.592500
vt 0.062500 0.500000
vt 0.062500 0.692500
vt 0.093750 0.792500
vt 0.062500 0.792500
vt 0.031250 0.792500
vt 0.000000 0.792500
vt 0.062500 0.892500
vt 0.031250 0.892500
vt 0.000000 0.892500
vt 1.000000 0.792500
vt 0.968750 0.792500
vt 1.000000 0.892500
vt 0.968750 0.892500
vt 0.937500 0.892500
vt 0.937500 0.792500
vt 0.906250 0.892500
vt 0.906250 0.792500
vt 0.875000 0.892500
vt 0.875000 0.792500
vt 0.843750 0.892500
vt 0.843750 0.792500
vt 0.812500 0.892500
vt 0.812500 0.792500
vt 0.781250 0.892500
vt 0.781250 0.792500
vt 0.750000 0.892500
vt 0.750000 0.792500
vt 0.718750 0.892500
vt 0.718750 0.792500
vt 0.687500 0.892500
vt 0.687500 0.792500
vt 0.656250 0.892500
vt 0.656250 0.792500
vt 0.625000 0.892500
vt 0.625000 0.792500
vt 0.593750 0.892500
vt 0.593750 0.792500
vt 0.562500 0.892500
vt 0.562500 0.792500
vt 0.531250 0.892500
vt 0.531250 0.792500
vt 0.500000 0.892500
vt 0.500000 0.792500
vt 0.468750 0.892500
vt 0.468750 0.792500
vt 0.437500 0.892500
vt 0.437500 0.792500
vt 0.406250 0.892500
vt 0.406250 0.792500
vt 0.375000 0.892500
vt 0.375000 0.792500
vt 0.343750 0.892500
vt 0.343750 0.792500
vt 0.312500 0.892500
vt 0.312500 0.792500
vt 0.281250 0.892500
vt 0.281250 0.792500
vt 0.250000 0.892500
vt 0.250000 0.792500
vt 0.218750 0.892500
vt 0.218750 0.792500
vt 0.187500 0.892500
vt 0.187500 0.792500
vt 0.156250 0.892500
vt 0.156250 0.792500
vt 0.125000 0.892500
vt 0.125000 0.792500
vt 0.093750 0.892500
vt 0.093750 1.000000
vt 0.062500 1.000000
vt 0.125000 1.000000
vt 0.031250 1.000000
vt 0.296822 0.485388
vt 0.250000 0.490000
vt 0.203178 0.485388
vt 0.158156 0.471731
vt 0.116663 0.449553
vt 0.080294 0.419706
vt 0.050447 0.383337
vt 0.028269 0.341844
vt 0.014612 0.296822
vt 0.010000 0.250000
vt 0.014612 0.203178
vt 0.028269 0.158156
vt 0.050447 0.116663
vt 0.080294 0.080294
vt 0.116663 0.050447
vt 0.158156 0.028269
vt 0.203178 0.014612
vt 0.250000 0.010000
vt 0.296822 0.014612
vt 0.341844 0.028269
vt 0.383337 0.050447
vt 0.419706 0.080294
vt 0.449553 0.116663
vt 0.471731 0.158156
vt 0.485388 0.203178
vt 0.490000 0.250000
vt 0.485388 0.296822
vt 0.471731 0.341844
vt 0.449553 0.383337
vt 0.419706 0.419706
vt 0.383337 0.449553
vt 0.341844 0.471731
vt 0.000000 1.000000
vt 1.000000 1.000000
vt 0.968750 1.000000
vt 0.937500 1.000000
vt 0.906250 1.000000
vt 0.875000 1.000000
vt 0.843750 1.000000
vt 0.812500 1.000000
vt 0.781250 1.000000
vt 0.750000 1.000000
vt 0.718750 1.000000
vt 0.687500 1.000000
vt 0.656250 1.000000
vt 0.625000 1.000000
vt 0.593750 1.000000
vt 0.562500 1.000000
vt 0.531250 1.000000
vt 0.500000 1.000000
vt 0.468750 1.000000
vt 0.437500 1.000000
vt 0.406250 1.000000
vt 0.375000 1.000000
vt 0.343750 1.000000
vt 0.312500 1.000000
vt 0.281250 1.000000
vt 0.250000 1.000000
vt 0.218750 1.000000
vt 0.187500 1.000000
vt 0.156250 1.000000
s 0
usemtl Material
f 625/628/352 628/629/352 631/630/352 626/631/352
f 625/632/353 626/633/353 634/634/353 637/635/353 640/636/353 643/637/353 646/638/353 649/639/353 652/640/353 655/641/353 658/642/353 661/643/353 664/644/353 667/645/353 670/646/353 673/647/353 676/648/353 679/649/353 682/650/353 685/651/353 688/652/353 691/653/353 694/654/353 697/655/353 700/656/353 703/657/353 706/658/353 709/659/353 712/660/353 715/661/353 718/662/353 627/663/353
f 627/664/354 630/665/354 628/666/354 625/667/354
f 628/629/355 629/668/355 632/669/355 631/630/355
f 630/665/356 721/670/356 629/671/356 628/666/356
f 626/631/357 631/630/357 633/672/357 634/673/357
f 631/630/358 632/669/358 635/674/358 633/672/358
f 634/673/359 633/672/359 636/675/359 637/676/359
f 633/672/360 635/674/360 638/677/360 636/675/360
f 637/676/361 636/675/361 639/678/361 640/679/361
f 636/675/362 638/677/362 641/680/362 639/678/362
f 640/679/363 639/678/363 642/681/363 643/682/363
f 639/678/364 641/680/364 644/683/364 642/681/364
f 643/682/365 642/681/365 645/684/365 646/685/365
f 642/681/366 644/683/366 647/686/366 645/684/366
f 646/685/367 645/684/367 648/687/367 649/688/367
f 645/684/368 647/686/368 650/689/368 648/687/368
f 649/688/369 648/687/369 651/690/369 652/691/369
f 648/687/370 650/689/370 653/692/370 651/690/370
f 652/691/371 651/690/371 654/693/371 655/694/371
f 651/690/372 653/692/372 656/695/372 654/693/372
f 655/694/373 654/693/373 657/696/373 658/697/373
f 654/693/374 656/695/374 659/698/374 657/696/374
f 658/697/375 657/696/375 660/699/375 661/700/375
f 657/696/376 659/698/376 662/701/376 660/699/376
f 661/700/377 660/699/377 663/702/377 664/703/377
f 660/699/378 662/701/378 665/704/378 663/702/378
f 664/703/379 663/702/379 666/705/379 667/706/379
f 663/702/380 665/704/380 668/707/380 666/705/380
f 667/706/381 666/705/381 669/708/381 670/709/381
f 666/705/382 668/707/382 671/710/382 669/708/382
f 670/709/383 669/708/383 672/711/383 673/712/383
f 669/708/384 671/710/384 674/713/384 672/711/384
f 673/712/385 672/711/385 675/714/385 676/715/385
f 672/711/386 674/713/386 677/716/386 675/714/386
f 676/715/387 675/714/387 678/717/387 679/718/387
f 675/714/388 677/716/388 680/719/388 678/717/388
f 679/718/389 678/717/389 681/720/389 682/721/389
f 678/717/390 680/719/390 683/722/390 681/720/390
f 682/721/391 681/720/391 684/723/391 685/724/391
f 681/720/392 683/722/392 686/725/392 684/723/392
f 685/724/393 684/723/393 687/726/393 688/727/393
f 684/723/394 686/725/394 689/728/394 687/726/394
f 688/727/395 687/726/395 690/729/395 691/730/395
f 687/726/396 689/728/396 692/731/396 690/729/396
f 691/730/397 690/729/397 693/732/397 694/733/397
f 690/729/398 692/731/398 695/734/398 693/732/398
f 694/733/399 693/732/399 696/735/399 697/736/399
f 693/732/400 695/734/400 698/737/400 696/735/400
f 697/736/401 696/735/401 699/738/401 700/739/401
f 696/735/402 698/737/402 701/740/402 699/738/402
f 700/739/403 699/738/403 702/741/403 703/742/403
f 699/738/404 701/740/404 704/743/404 702/741/404
f 703/742/405 702/741/405 705/744/405 706/745/405
f 702/741/406 704/743/406 707/746/406 705/744/406
f 706/745/407 705/744/407 708/747/407 709/748/407
f 705/744/408 707/746/408 710/749/408 708/747/408
f 709/748/409 708/747/409 711/750/409 712/751/409
f 708/747/410 710/749/410 713/752/410 711/750/410
f 712/751/411 711/750/411 714/753/411 715/754/411
f 711/750/412 713/752/412 716/755/412 714/753/412
f 715/754/413 714/753/413 717/756/413 718/757/413
f 714/753/414 716/755/414 719/758/414 717/756/414
f 718/757/415 717/756/415 630/665/415 627/664/415
f 717/756/416 719/758/416 721/670/416 630/665/416
f 716/755/417 782/759/417 720/760/417 719/758/417
f 719/758/418 720/760/418 722/761/418 721/670/418
f 721/670/419 722/761/419 724/762/419 629/671/419
f 720/760/420 785/763/420 723/764/420 722/761/420
f 722/761/421 723/764/421 725/765/421 724/762/421
f 629/668/422 724/766/422 726/767/422 632/669/422
f 724/766/423 725/768/423 727/769/423 726/767/423
f 726/767/424 727/769/424 729/770/424 728/771/424
f 632/669/425 726/767/425 728/771/425 635/674/425
f 728/771/426 729/770/426 731/772/426 730/773/426
f 635/674/427 728/771/427 730/773/427 638/677/427
f 730/773/428 731/772/428 733/774/428 732/775/428
f 638/677/429 730/773/429 732/775/429 641/680/429
f 732/775/430 733/774/430 735/776/430 734/777/430
f 641/680/431 732/775/431 734/777/431 644/683/431
f 734/777/432 735/776/432 737/778/432 736/779/432
f 644/683/433 734/777/433 736/779/433 647/686/433
f 736/779/434 737/778/434 739/780/434 738/781/434
f 647/686/435 736/779/435 738/781/435 650/689/435
f 738/781/436 739/780/436 741/782/436 740/783/436
f 650/689/437 738/781/437 740/783/437 653/692/437
f 740/783/438 741/782/438 743/784/438 742/785/438
f 653/692/439 740/783/439 742/785/439 656/695/439
f 742/785/440 743/784/440 745/786/440 744/787/440
f 656/695/441 742/785/441 744/787/441 659/698/441
f 744/787/442 745/786/442 747/788/442 746/789/442
f 659/698/443 744/787/443 746/789/443 662/701/443
f 746/789/444 747/788/444 749/790/444 748/791/444
f 662/701/445 746/789/445 748/791/445 665/704/445
f 748/791/446 749/790/446 751/792/446 750/793/446
f 665/704/447 748/791/447 750/793/447 668/707/447
f 750/793/448 751/792/448 753/794/448 752/795/448
f 668/707/449 750/793/449 752/795/449 671/710/449
f 752/795/450 753/794/450 755/796/450 754/797/450
f 671/710/451 752/795/451 754/797/451 674/713/451
f 754/797/452 755/796/452 757/798/452 756/799/452
f 674/713/453 754/797/453 756/799/453 677/716/453
f 756/799/454 757/798/454 759/800/454 758/801/454
f 677/716/455 756/799/455 758/801/455 680/719/455
f 758/801/456 759/800/456 761/802/456 760/803/456
f 680/719/457 758/801/457 760/803/457 683/722/457
f 760/803/458 761/802/458 763/804/458 762/805/458
f 683/722/459 760/803/459 762/805/459 686/725/459
f 762/805/460 763/804/460 765/806/460 764/807/460
f 686/725/461 762/805/461 764/807/461 689/728/461
f 764/807/462 765/806/462 767/808/462 766/809/462
f 689/728/463 764/807/463 766/809/463 692/731/463
f 766/809/464 767/808/464 769/810/464 768/811/464
f 692/731/465 766/809/465 768/811/465 695/734/465
f 768/811/466 769/810/466 771/812/466 770/813/466
f 695/734/467 768/811/467 770/813/467 698/737/467
f 770/813/468 771/812/468 773/814/468 772/815/468
f 698/737/469 770/813/469 772/815/469 701/740/469
f 772/815/470 773/814/470 775/816/470 774/817/470
f 701/740/471 772/815/471 774/817/471 704/743/471
f 774/817/472 775/816/472 777/818/472 776/819/472
f 704/743/473 774/817/473 776/819/473 707/746/473
f 776/819/474 777/818/474 779/820/474 778/821/474
f 707/746/475 776/819/475 778/821/475 710/749/475
f 778/821/476 779/820/476 781/822/476 780/823/476
f 710/749/477 778/821/477 780/823/477 713/752/477
f 780/823/478 781/822/478 783/824/478 782/759/478
f 713/752/479 780/823/479 782/759/479 716/755/479
f 782/759/480 783/824/480 785/763/480 720/760/480
f 783/824/481 784/825/481 786/826/481 785/763/481
f 781/822/482 816/827/482 784/825/482 783/824/482
f 785/763/483 786/826/483 787/828/483 723/764/483
f 789/829/484 788/830/484 787/831/484 786/832/484 784/833/484 816/834/484 815/835/484 814/836/484 813/837/484 812/838/484 811/839/484 810/840/484 809/841/484 808/842/484 807/843/484 806/844/484 805/845/484 804/846/484 803/847/484 802/848/484 801/849/484 800/850/484 799/851/484 798/852/484 797/853/484 796/854/484 795/855/484 794/856/484 793/857/484 792/858/484 791/859/484 790/860/484
f 723/764/485 787/828/485 788/861/485 725/765/485
f 725/768/486 788/862/486 789/863/486 727/769/486
f 727/769/487 789/863/487 790/864/487 729/770/487
f 729/770/488 790/864/488 791/865/488 731/772/488
f 731/772/489 791/865/489 792/866/489 733/774/489
f 733/774/490 792/866/490 793/867/490 735/776/490
f 735/776/491 793/867/491 794/868/491 737/778/491
f 737/778/492 794/868/492 795/869/492 739/780/492
f 739/780/493 795/869/493 796/870/493 741/782/493
f 741/782/494 796/870/494 797/871/494 743/784/494
f 743/784/495 797/871/495 798/872/495 745/786/495
f 745/786/496 798/872/496 799/873/496 747/788/496
f 747/788/497 799/873/497 800/874/497 749/790/497
f 749/790/498 800/874/498 801/875/498 751/792/498
f 751/792/499 801/875/499 802/876/499 753/794/499
f 753/794/500 802/876/500 803/877/500 755/796/500
f 755/796/501 803/877/501 804/878/501 757/798/501
f 757/798/502 804/878/502 805/879/502 759/800/502
f 759/800/503 805/879/503 806/880/503 761/802/503
f 761/802/504 806/880/504 807/881/504 763/804/504
f 763/804/505 807/881/505 808/882/505 765/806/505
f 765/806/506 808/882/506 809/883/506 767/808/506
f 767/808/507 809/883/507 810/884/507 769/810/507
f 769/810/508 810/884/508 811/885/508 771/812/508
f 771/812/509 811/885/509 812/886/509 773/814/509
f 773/814/510 812/886/510 813/887/510 775/816/510
f 775/816/511 813/887/511 814/888/511 777/818/511
f 777/818/512 814/888/512 815/889/512 779/820/512
f 779/820/513 815/889/513 816/827/513 781/822/513
